<?xml version="1.0" encoding="UTF-8" standalone="no"?>
<svg 
	viewBox="0 0 9.7645104 10.583333"
	version="1.1"
	height="10.583333mm"
	width="9.7645102mm"
	xmlns:svg="http://www.w3.org/2000/svg"
    xmlns="http://www.w3.org/2000/svg">
	<path
		transform="translate(-156.58475,-97.768197)"
		d="m 162.13943,97.768197 c -3.18662,0 -5.55468,2.207371 -5.55468,5.291663 0,3.0843 2.36811,5.29167 5.54011,5.29167 1.78333,0 3.25965,-0.64344 4.2244,-1.82747 l -1.5201,-1.40317 c -0.68702,0.80396 -1.54957,1.21335 -2.57279,1.21335 -1.04474,0 -1.9234,-0.40105 -2.50688,-1.0782 v -1.1687 h 0.98768 c 1.3101,0 2.12997,-0.67958 2.12997,-1.7725 0,-1.09992 -0.81987,-1.77947 -2.12997,-1.77947 h -0.65633 c 0.56368,-0.47632 1.31291,-0.749882 2.17553,-0.749882 1.02322,0 1.88577,0.409422 2.57279,1.198772 l 1.5201,-1.403479 c -0.96475,-1.169396 -2.44112,-1.812584 -4.20983,-1.812584 z m -2.38994,3.691683 h 0.92481 c 0.69358,0 1.04388,0.31551 1.04388,0.85496 0,0.53245 -0.3503,0.84768 -1.04388,0.84768 h -0.92481 z" />
</svg>