<svg xmlns="http://www.w3.org/2000/svg" viewBox="0 0 602.814 609.475">
  <defs>
    <style>
      .cls-1 {
        fill: #705c43;
      }

      .cls-2 {
        fill: #3e4e50;
        stroke: #7e979a;
        stroke-linecap: round;
        stroke-linejoin: round;
        stroke-width: 9px;
      }

      .cls-3 {
        fill: #ffd7bf;
      }
    </style>
  </defs>
  <g id="Group_19" data-name="Group 19" transform="translate(-1239.5 -225.844)">
    <g id="Group_18" data-name="Group 18">
      <path id="Path_3" data-name="Path 3" class="cls-1" d="M266.144,16.409l414.45,66.907L569.663,141.657,150.871,64.217Z" transform="translate(1161.72 687.312)"/>
      <path id="rect815" class="cls-2" d="M101.294,166.054l432.568-55.131c19.106-2.435,34.8,14.925,34.8,33.464V677.411c0,18.539-15.7,35.9-34.8,33.464L101.294,655.743c-19.083-2.432-34.8-12.182-34.8-27.313V193.367c0-15.132,15.722-24.881,34.8-27.313Z" transform="translate(1177.51 119.683)"/>
    </g>
    <path id="path2318" class="cls-3" d="M120.266,124.947a1.131,1.131,0,0,0-.692.3.782.782,0,0,0-.279.591l-.022.711a.646.646,0,0,0,.266.536.978.978,0,0,0,.705.2l1.039-.082a1.08,1.08,0,0,0,.68-.294.825.825,0,0,0,.289-.61V125.6a.643.643,0,0,0-.289-.546.936.936,0,0,0-.68-.186l-1.016.081Zm49.837-3.253a2.306,2.306,0,0,0-1.411.608,1.561,1.561,0,0,0-.6,1.171v3.156a.863.863,0,0,1-.312.64,1.164,1.164,0,0,1-.716.322l-2,.156a1.177,1.177,0,0,0-.715.3.776.776,0,0,0-.284.6.667.667,0,0,0,.284.563,1.054,1.054,0,0,0,.715.177l2-.154a.98.98,0,0,1,.716.219.716.716,0,0,1,.312.581v3.148a1.348,1.348,0,0,0,.583,1.1,2.029,2.029,0,0,0,1.425.393l3.066-.23a1.166,1.166,0,0,0,.705-.3.8.8,0,0,0,.3-.6.649.649,0,0,0-.3-.553.987.987,0,0,0-.705-.191l-3.066.232v-3.207a1.783,1.783,0,0,0-.814-1.58,2.15,2.15,0,0,0,.814-1.706v-3.2l3.066-.238a1.161,1.161,0,0,0,.705-.293.8.8,0,0,0,.3-.611.646.646,0,0,0-.3-.552.983.983,0,0,0-.705-.189l-3.066.244Zm-81.2,9.9a2.985,2.985,0,0,0-1.76.765.786.786,0,0,0-.922-.537,1.1,1.1,0,0,0-.675.29.769.769,0,0,0-.268.582v7.559a.652.652,0,0,0,.281.537.988.988,0,0,0,.684.186,1.032,1.032,0,0,0,.654-.286.784.784,0,0,0,.273-.579v-5.677l1.361-1.073a.667.667,0,0,1,.373-.153c.278-.022.416.1.416.377v6.342a.664.664,0,0,0,.282.548.974.974,0,0,0,.668.18,1.068,1.068,0,0,0,.664-.28.748.748,0,0,0,.282-.573v-5.832l1.13-.888a.747.747,0,0,1,.4-.173c.234-.017.359.145.374.486l.226,6.247a.692.692,0,0,0,.3.541.961.961,0,0,0,.679.187,1.079,1.079,0,0,0,.666-.288.779.779,0,0,0,.283-.585L95,132.988a1.614,1.614,0,0,0-.7-1.284,2.18,2.18,0,0,0-1.527-.414,3.16,3.16,0,0,0-1.991.974,2.235,2.235,0,0,0-1.875-.672h0Zm29.421-2.3a1.107,1.107,0,0,0-.691.305.805.805,0,0,0-.279.6.668.668,0,0,0,.279.543.981.981,0,0,0,.691.186l1.96-.152v6.023l-1.982.15a1.131,1.131,0,0,0-.691.292.79.79,0,0,0-.279.585.681.681,0,0,0,.279.554,1.012,1.012,0,0,0,.691.181l5.91-.443a1.148,1.148,0,0,0,.686-.284.79.79,0,0,0,.289-.6.635.635,0,0,0-.3-.543.987.987,0,0,0-.694-.188l-1.943.147v-6.833a.666.666,0,0,0-.289-.554.915.915,0,0,0-.68-.2l-2.954.231Zm14.746-1.155a1.121,1.121,0,0,0-.7.307.807.807,0,0,0-.282.6v7.684a.665.665,0,0,0,.291.549.988.988,0,0,0,.69.19,1.115,1.115,0,0,0,.685-.293.787.787,0,0,0,.291-.593V131.4l2.674-1.648a2.146,2.146,0,0,1,.957-.353l.958-.075q1.041-.081,1.075.768l.293,6.04a.691.691,0,0,0,.306.58,1.064,1.064,0,0,0,.68.161,1.153,1.153,0,0,0,.7-.295.749.749,0,0,0,.279-.594l-.27-6.142a2.041,2.041,0,0,0-.9-1.623,2.946,2.946,0,0,0-2.025-.53l-.913.072a4.545,4.545,0,0,0-2.03.634l-1.785,1.034v-.538a.667.667,0,0,0-.291-.556.951.951,0,0,0-.685-.2Zm-29.335,2.316a1.115,1.115,0,0,0-.684.292.772.772,0,0,0-.272.586.653.653,0,0,0,.285.539.946.946,0,0,0,.671.186l3.644-.283a.922.922,0,0,1,.673.187.644.644,0,0,1,.286.544l.022,1.134a4.927,4.927,0,0,0-.893-.045l-3.754.289a3.329,3.329,0,0,0-2.05.873,2.341,2.341,0,0,0-.845,1.77v.935a1.991,1.991,0,0,0,.845,1.652,2.906,2.906,0,0,0,2.05.554l3.24-.243,1.627-.927a.666.666,0,0,0,.286.552,1.015,1.015,0,0,0,.7.18,1.136,1.136,0,0,0,.678-.283.787.787,0,0,0,.286-.6l-.242-6a2.049,2.049,0,0,0-.881-1.642,2.863,2.863,0,0,0-2.024-.54l-3.644.285Zm-29.657,6.429v0a1.1,1.1,0,0,0-.682.288.751.751,0,0,0-.279.577v1.368a.669.669,0,0,0,.27.539.94.94,0,0,0,.669.185l1.919-.145a1.029,1.029,0,0,0,.658-.286.813.813,0,0,0,.279-.6v-1.352a.634.634,0,0,0-.279-.535.923.923,0,0,0-.658-.189l-1.9.146Zm29.635-1.358,3.78-.289a.945.945,0,0,1,.673.18.688.688,0,0,1,.286.552l.057.672-2.093,1.184-2.7.2a.962.962,0,0,1-.675-.187.66.66,0,0,1-.285-.544v-.9a.777.777,0,0,1,.276-.586,1.11,1.11,0,0,1,.684-.291h0Zm48.219,11.769a1.152,1.152,0,0,0-.708.293.768.768,0,0,0-.281.591l-.022.722a.653.653,0,0,0,.268.545,1.013,1.013,0,0,0,.722.2l1.063-.075a1.113,1.113,0,0,0,.7-.292.816.816,0,0,0,.3-.611v-.7a.65.65,0,0,0-.3-.551.982.982,0,0,0-.7-.193l-1.039.074Zm-10.993,1.494a1.071,1.071,0,0,0-.675.289.778.778,0,0,0-.284.593V153.5l-.679-.425a3.351,3.351,0,0,0-2.1-.531l-1.41.1a3.615,3.615,0,0,0-2.031.757l-.8.627a2.414,2.414,0,0,0-.654.824,2.287,2.287,0,0,0-.278,1.08v3.3a2.188,2.188,0,0,0,.242.955,1.976,1.976,0,0,0,.537.71l.815.513a3.254,3.254,0,0,0,2,.584l1.67-.11a4.715,4.715,0,0,0,2.689-1.349v.357a.691.691,0,0,0,.284.561,1.011,1.011,0,0,0,.7.188,1.142,1.142,0,0,0,.689-.28.786.786,0,0,0,.293-.6V149.526a.646.646,0,0,0-.306-.552,1.008,1.008,0,0,0-.7-.192Zm57.835-4.088a1.2,1.2,0,0,0-.732.3.784.784,0,0,0-.291.605.692.692,0,0,0,.291.572,1.1,1.1,0,0,0,.732.184l2.076-.146V156l-2.053.137a1.2,1.2,0,0,0-.732.3.8.8,0,0,0-.291.6.717.717,0,0,0,.291.581,1.07,1.07,0,0,0,.732.2l6.214-.41a1.166,1.166,0,0,0,.726-.3.831.831,0,0,0,.307-.626.677.677,0,0,0-.307-.562,1.065,1.065,0,0,0-.726-.2l-2.082.139V145.234a.679.679,0,0,0-.306-.564,1.045,1.045,0,0,0-.72-.2l-3.129.221Zm89.9-6.354a4.935,4.935,0,0,0-2.864,1.067,2.852,2.852,0,0,0-1.141,2.26v.661l-1.14.079a1.238,1.238,0,0,0-.8.318.838.838,0,0,0-.289.61.706.706,0,0,0,.313.58,1.154,1.154,0,0,0,.776.2l1.11-.077v7.254a.7.7,0,0,0,.324.589,1.218,1.218,0,0,0,.793.194,1.321,1.321,0,0,0,.768-.3.815.815,0,0,0,.324-.632v-7.259l2.207-.152a1.274,1.274,0,0,0,.765-.307.814.814,0,0,0,.325-.626.7.7,0,0,0-.325-.589,1.114,1.114,0,0,0-.765-.19l-2.182.151v-.662a1.213,1.213,0,0,1,.5-.983,2.329,2.329,0,0,1,1.3-.459l2.565-.18a1.289,1.289,0,0,0,.766-.309.808.808,0,0,0,.325-.623.709.709,0,0,0-.325-.6,1.105,1.105,0,0,0-.766-.2l-2.565.182Zm13.06-.923a1.322,1.322,0,0,0-.786.311.81.81,0,0,0-.317.628.713.713,0,0,0,.317.591,1.208,1.208,0,0,0,.786.189l2.229-.156v10.149l-2.2.147a1.323,1.323,0,0,0-.786.308.827.827,0,0,0-.317.627.738.738,0,0,0,.317.6,1.178,1.178,0,0,0,.786.208l6.673-.441a1.27,1.27,0,0,0,.775-.308.852.852,0,0,0,.329-.649.693.693,0,0,0-.329-.582,1.157,1.157,0,0,0-.775-.2l-2.236.149v-11.02a.7.7,0,0,0-.329-.584,1.165,1.165,0,0,0-.778-.2l-3.355.237Zm55.445-2.427a1.375,1.375,0,0,0-.805.317.828.828,0,0,0-.34.641v1.5a.722.722,0,0,0,.329.6,1.27,1.27,0,0,0,.816.2l2.314-.16a1.362,1.362,0,0,0,.8-.308.833.833,0,0,0,.341-.65v-1.5a.689.689,0,0,0-.341-.594,1.177,1.177,0,0,0-.8-.2l-2.314.162Zm-105.69,8.183a1.267,1.267,0,0,0-.759.3.805.805,0,0,0-.3.613v1.458a.694.694,0,0,0,.287.583,1.11,1.11,0,0,0,.75.192l2.178-.15a1.23,1.23,0,0,0,.737-.3.8.8,0,0,0,.332-.619v-1.46a.7.7,0,0,0-.317-.551,1.087,1.087,0,0,0-.775-.217l-2.129.149ZM181.328,149.1a1.2,1.2,0,0,0-.737.3.791.791,0,0,0-.3.6V161.75a.7.7,0,0,0,.3.58,1.1,1.1,0,0,0,.737.2,1.129,1.129,0,0,0,.709-.291.8.8,0,0,0,.3-.62v-3.651l.784.586a2.92,2.92,0,0,0,2.007.536l.446-.029a3.6,3.6,0,0,0,2.08-.746l1.663-1.272a2.654,2.654,0,0,0,1.2-2.14v-2.579A2.181,2.181,0,0,0,189.4,150.4l-1.7-1.075a3.169,3.169,0,0,0-1.987-.509l-.47.033a4.745,4.745,0,0,0-2.912,1.535v-.529a.677.677,0,0,0-.3-.56A1.027,1.027,0,0,0,181.328,149.1Zm58.428-3.675a1.287,1.287,0,0,0-.768.315.793.793,0,0,0-.314.6v1.29l-2.859,5.3-.737.049-2.765-4.933V146.8a.657.657,0,0,0-.327-.565,1.1,1.1,0,0,0-.749-.2,1.169,1.169,0,0,0-.725.3.782.782,0,0,0-.3.608v1.617l3.146,5.643a1,1,0,0,0,1.029.524l.51-.034-1.439,2.763-2.249.147a1.267,1.267,0,0,0-.749.291.778.778,0,0,0-.3.607.685.685,0,0,0,.3.58,1.134,1.134,0,0,0,.749.194l2.912-.189a1.115,1.115,0,0,0,1-.615l5.682-10.632v-1.646a.68.68,0,0,0-.314-.568,1.086,1.086,0,0,0-.739-.2Zm-89.8,6.238a1.123,1.123,0,0,0-.707.3.8.8,0,0,0-.281.6.681.681,0,0,0,.281.555,1.018,1.018,0,0,0,.707.194l2.005-.138v6.088l-2.028.135a1.152,1.152,0,0,0-.707.29.79.79,0,0,0-.281.593.688.688,0,0,0,.281.564,1.048,1.048,0,0,0,.707.185l6.051-.4a1.152,1.152,0,0,0,.7-.278.789.789,0,0,0,.3-.6.648.648,0,0,0-.305-.556,1.038,1.038,0,0,0-.715-.2l-1.984.132v-6.911a.678.678,0,0,0-.3-.563.959.959,0,0,0-.7-.2l-3.023.21Zm16.889-1.153a2.931,2.931,0,0,0-1.848.774,2.12,2.12,0,0,0-.742,1.575,1.653,1.653,0,0,0,.417,1.063,2.373,2.373,0,0,0,1.2.737l5.384,1.62c.447.133.672.388.672.76a.927.927,0,0,1-.3.663,1.13,1.13,0,0,1-.741.324l-3.741.249a1.9,1.9,0,0,1-1.266-.268,1.227,1.227,0,0,0-.811-.295,1.206,1.206,0,0,0-.761.3.788.788,0,0,0-.289.586c0,.325.3.641.9.946a3.711,3.711,0,0,0,1.953.389l4.062-.268a3.424,3.424,0,0,0,2.072-.871,2.385,2.385,0,0,0,.922-1.853,2.09,2.09,0,0,0-.526-1.406,2.653,2.653,0,0,0-1.332-.858l-5.341-1.572c-.294-.091-.44-.243-.44-.458,0-.306.22-.473.665-.5l4.541-.313a1.158,1.158,0,0,1,.829.293,1.21,1.21,0,0,0,.875.294,1.156,1.156,0,0,0,.669-.272.74.74,0,0,0,.314-.6c0-.333-.274-.656-.825-.963a3.307,3.307,0,0,0-1.907-.395l-4.6.319Zm49.632-3.445a1.217,1.217,0,0,0-.741.3.785.785,0,0,0-.3.605.683.683,0,0,0,.309.567,1.075,1.075,0,0,0,.732.2l3.945-.272a1.053,1.053,0,0,1,.734.2.661.661,0,0,1,.31.564l.025,1.185a5.525,5.525,0,0,0-.968-.053l-4.069.277v0a3.674,3.674,0,0,0-2.227.9,2.386,2.386,0,0,0-.911,1.841v.973a2.058,2.058,0,0,0,.911,1.726,3.266,3.266,0,0,0,2.227.586l3.511-.232,1.759-.951a.7.7,0,0,0,.315.576,1.134,1.134,0,0,0,.754.188,1.248,1.248,0,0,0,.735-.286.8.8,0,0,0,.31-.618l-.263-6.25a2.127,2.127,0,0,0-.955-1.715,3.224,3.224,0,0,0-2.2-.575l-3.945.274Zm105.051-7.292a3.962,3.962,0,0,0-2.031.719l-.928.63a2.853,2.853,0,0,0-.861.954,2.145,2.145,0,0,0-.331.937v3.964a1.781,1.781,0,0,0,.306.925,2.192,2.192,0,0,0,.78.751l.994.611a3.449,3.449,0,0,0,.944.341,4.408,4.408,0,0,0,1.236.1l5.9-.39a1.309,1.309,0,0,0,.775-.309.808.808,0,0,0,.344-.634.68.68,0,0,0-.334-.585,1.178,1.178,0,0,0-.785-.206l-5.753.383a1.861,1.861,0,0,1-1.006-.254l-.653-.38a.816.816,0,0,1-.49-.719v-.5l7.9-.532a1.329,1.329,0,0,0,.785-.311.813.813,0,0,0,.334-.63v-2.1a1.988,1.988,0,0,0-.908-1.82l-.836-.561a3.543,3.543,0,0,0-2.239-.607l-3.139.218Zm15.511-1.077a1.277,1.277,0,0,0-.815.335.858.858,0,0,0-.31.631.638.638,0,0,0,.253.5l3.734,3.171-4.044,4.012a.766.766,0,0,0,.108,1.151,1.18,1.18,0,0,0,.8.206,1.307,1.307,0,0,0,.9-.422l3.7-3.635,3.669,3.147a1.254,1.254,0,0,0,.919.295,1.327,1.327,0,0,0,.784-.312.876.876,0,0,0,.348-.69.574.574,0,0,0-.229-.472l-4.005-3.457,3.819-3.815a.679.679,0,0,0,.145-.5.627.627,0,0,0-.348-.567,1.3,1.3,0,0,0-.784-.185,1.221,1.221,0,0,0-.81.356l-3.5,3.43-3.418-2.93a1.223,1.223,0,0,0-.914-.255h0ZM185.13,150.527l.59-.041a1.009,1.009,0,0,1,.628.161l1.708,1.074a.787.787,0,0,1,.447.669v2.664a.853.853,0,0,1-.4.727l-1.588,1.237a1.49,1.49,0,0,1-.8.359l-.521.035a1.5,1.5,0,0,1-.953-.379l-1.462-1.092a.92.92,0,0,1-.446-.718v-2.111a1.006,1.006,0,0,1,.4-.752l1.509-1.324a1.7,1.7,0,0,1,.883-.511Zm-49.366,3.761,1.369-.094a1.282,1.282,0,0,1,.84.184l1.6,1.02a.911.911,0,0,1,.41.842V158a.908.908,0,0,1-.387.725l-1.552,1.167a1.5,1.5,0,0,1-.75.351l-1.6.107a1.013,1.013,0,0,1-.641-.18l-.641-.414a.692.692,0,0,1-.385-.579V155.74a.8.8,0,0,1,.327-.642l.628-.5a1.358,1.358,0,0,1,.781-.314Zm185.919-12.776,2.807-.193a1.64,1.64,0,0,1,.906.255l.65.4a.784.784,0,0,1,.389.719V143.9l-6.785.461v-1.338a.83.83,0,0,1,.439-.7l.648-.47a1.792,1.792,0,0,1,.945-.342v0Zm35.441-.49a1.386,1.386,0,0,0-.816.316.832.832,0,0,0-.324.639.739.739,0,0,0,.324.611,1.163,1.163,0,0,0,.79.207l3.488-.236v3.677a.713.713,0,0,0,.341.6,1.3,1.3,0,0,0,.834.194,1.4,1.4,0,0,0,.8-.3.83.83,0,0,0,.341-.649v-4.557a.707.707,0,0,0-.357-.6,1.174,1.174,0,0,0-.792-.219l-4.632.317Zm-105.633,7.986a1.288,1.288,0,0,0-.759.3.8.8,0,0,0-.3.624v1.458a.7.7,0,0,0,.287.573,1.08,1.08,0,0,0,.75.2l2.178-.146a1.252,1.252,0,0,0,.751-.3.834.834,0,0,0,.317-.633v-1.441a.668.668,0,0,0-.332-.574,1.125,1.125,0,0,0-.761-.2l-2.129.145Zm-35.042,3.335,4.092-.276a1.08,1.08,0,0,1,.734.188.713.713,0,0,1,.31.576l.062.7-2.268,1.215-2.93.2a1.073,1.073,0,0,1-.732-.2.678.678,0,0,1-.309-.564v-.936a.782.782,0,0,1,.3-.6,1.221,1.221,0,0,1,.741-.3h0Zm17.941,14.7a1.227,1.227,0,0,0-.75.3.789.789,0,0,0-.3.611l-.025.74a.675.675,0,0,0,.289.563,1.092,1.092,0,0,0,.76.215l1.126-.069a1.186,1.186,0,0,0,.742-.3.833.833,0,0,0,.313-.631v-.72a.675.675,0,0,0-.313-.573,1.069,1.069,0,0,0-.742-.2l-1.1.068Zm87.466-5.426a1.335,1.335,0,0,0-.8.307.806.806,0,0,0-.322.63l-.026.762a.689.689,0,0,0,.306.579,1.2,1.2,0,0,0,.812.22l1.2-.073a1.274,1.274,0,0,0,.783-.306.851.851,0,0,0,.332-.651v-.742a.689.689,0,0,0-.332-.59,1.145,1.145,0,0,0-.783-.209l-1.17.073Zm-183.65,12.109a4.27,4.27,0,0,0-2.582.98,2.712,2.712,0,0,0-1.027,2.127v.627l-1.026.062a1.078,1.078,0,0,0-.721.3.8.8,0,0,0-.255.575.678.678,0,0,0,.278.551,1.008,1.008,0,0,0,.7.2l1-.06v6.886a.684.684,0,0,0,.291.562,1.062,1.062,0,0,0,.713.189,1.123,1.123,0,0,0,.687-.27.777.777,0,0,0,.292-.6v-6.891l1.986-.115a1.115,1.115,0,0,0,.693-.283.775.775,0,0,0,.293-.59.683.683,0,0,0-.293-.562.981.981,0,0,0-.693-.189l-1.964.119v-.632a1.154,1.154,0,0,1,.458-.923,2.008,2.008,0,0,1,1.168-.421l2.3-.141a1.127,1.127,0,0,0,.694-.284.777.777,0,0,0,.293-.591.686.686,0,0,0-.293-.57.978.978,0,0,0-.694-.2l-2.3.142ZM149.953,173a1.143,1.143,0,0,0-.707.286.76.76,0,0,0-.281.588.692.692,0,0,0,.281.565,1.052,1.052,0,0,0,.707.192l2.005-.123v9.625l-1.978.114a1.144,1.144,0,0,0-.712.284.775.775,0,0,0-.281.587.724.724,0,0,0,.281.577,1.038,1.038,0,0,0,.712.2l6-.343a1.086,1.086,0,0,0,.7-.283.813.813,0,0,0,.3-.612.676.676,0,0,0-.3-.555,1.011,1.011,0,0,0-.7-.2l-2.011.116V173.564a.672.672,0,0,0-.3-.554,1.018,1.018,0,0,0-.7-.2l-3.023.187Zm72.788-4.5a1.151,1.151,0,0,0-.721.293.773.773,0,0,0-.3.6v3.955l-.72-.447a3.649,3.649,0,0,0-2.229-.562l-1.5.091a3.876,3.876,0,0,0-2.152.768l-.85.635a2.487,2.487,0,0,0-.693.847,2.291,2.291,0,0,0-.294,1.109v3.394a2.229,2.229,0,0,0,.256.989,2.043,2.043,0,0,0,.569.731l.864.538a3.536,3.536,0,0,0,2.124.612l1.77-.1a5.018,5.018,0,0,0,2.854-1.365v.368a.706.706,0,0,0,.3.58,1.1,1.1,0,0,0,.744.195,1.226,1.226,0,0,0,.73-.279.794.794,0,0,0,.311-.615V169.27a.656.656,0,0,0-.32-.566,1.1,1.1,0,0,0-.745-.2Zm80.121-4.193a1.315,1.315,0,0,0-.787.3.8.8,0,0,0-.312.625v2.105l-1.154.07a1.312,1.312,0,0,0-.785.3.794.794,0,0,0-.312.624.7.7,0,0,0,.312.595,1.212,1.212,0,0,0,.785.2l1.128-.068v5.58a2.1,2.1,0,0,0,.983,1.766,3.564,3.564,0,0,0,2.347.622l2.209-.126a3.852,3.852,0,0,0,2.4-.907,2.273,2.273,0,0,0,.948-1.614.719.719,0,0,0-.319-.609,1.128,1.128,0,0,0-.791-.211,1.179,1.179,0,0,0-1.119.815,1.213,1.213,0,0,1-1.169.805l-2.158.125a1.235,1.235,0,0,1-.8-.21.7.7,0,0,1-.328-.584v-5.585l4.469-.268a1.315,1.315,0,0,0,.775-.291.813.813,0,0,0,.329-.635.7.7,0,0,0-.329-.588,1.162,1.162,0,0,0-.775-.21l-4.443.269V165.1a.7.7,0,0,0-.343-.585,1.146,1.146,0,0,0-.762-.209Zm169.312-9.666a1.5,1.5,0,0,0-.863.323.838.838,0,0,0-.366.659v1.561a.742.742,0,0,0,.349.628,1.417,1.417,0,0,0,.88.205l2.5-.15a1.51,1.51,0,0,0,.87-.311.849.849,0,0,0,.367-.672v-1.563a.709.709,0,0,0-.367-.615,1.327,1.327,0,0,0-.87-.218Zm-95.207,6.629a1.4,1.4,0,0,0-.827.313.836.836,0,0,0-.334.642v1.521a.725.725,0,0,0,.318.61,1.253,1.253,0,0,0,.816.2l2.371-.142a1.37,1.37,0,0,0,.8-.311.806.806,0,0,0,.356-.64v-1.523a.734.734,0,0,0-.345-.577,1.214,1.214,0,0,0-.839-.236l-2.318.141ZM232.29,171.527a1.2,1.2,0,0,0-.749.307.812.812,0,0,0-.3.618.7.7,0,0,0,.3.57,1.106,1.106,0,0,0,.749.2l2.125-.127v6.272l-2.154.124a1.228,1.228,0,0,0-.749.293.791.791,0,0,0-.3.605.708.708,0,0,0,.3.582,1.142,1.142,0,0,0,.749.2l6.414-.367a1.245,1.245,0,0,0,.739-.285.8.8,0,0,0,.314-.619.662.662,0,0,0-.324-.571,1.117,1.117,0,0,0-.753-.207l-2.107.122v-7.115a.7.7,0,0,0-.313-.581,1.045,1.045,0,0,0-.742-.217Zm15.987-.967a1.217,1.217,0,0,0-.758.308.809.809,0,0,0-.3.621V179.5a.71.71,0,0,0,.3.585,1.159,1.159,0,0,0,.758.2,1.27,1.27,0,0,0,.748-.286.8.8,0,0,0,.316-.621v-4.716l3.023-2.26a1.914,1.914,0,0,1,.989-.431l1.385-.083a1.08,1.08,0,0,1,.747.207.673.673,0,0,1,.317.574v.477a.714.714,0,0,0,.308.586,1.168,1.168,0,0,0,.762.2,1.2,1.2,0,0,0,.748-.3.814.814,0,0,0,.318-.635v-.454A2.077,2.077,0,0,0,257,170.8a3.358,3.358,0,0,0-2.261-.607l-1.561.094a3.992,3.992,0,0,0-2.1.851l-1.732,1.279V171.36a.7.7,0,0,0-.316-.592A1.084,1.084,0,0,0,248.277,170.559Zm71.349-4.318a1.3,1.3,0,0,0-.8.317.822.822,0,0,0-.316.637.707.707,0,0,0,.316.587,1.2,1.2,0,0,0,.8.21l2.257-.135v6.463l-2.282.132a1.321,1.321,0,0,0-.8.3.814.814,0,0,0-.321.624.726.726,0,0,0,.321.6,1.238,1.238,0,0,0,.8.2l6.805-.389a1.359,1.359,0,0,0,.789-.3.816.816,0,0,0,.333-.638.682.682,0,0,0-.349-.587,1.211,1.211,0,0,0-.8-.212l-2.238.129v-7.332a.712.712,0,0,0-.333-.6,1.118,1.118,0,0,0-.782-.222l-3.4.206Zm20.19-1.222a5.252,5.252,0,0,0-3,1.2,2.968,2.968,0,0,0-1.367,2.228v3.674a2.578,2.578,0,0,0,1.408,2.072,4.786,4.786,0,0,0,2.955.835l2.655-.152a5.373,5.373,0,0,0,2.95-1.167,2.94,2.94,0,0,0,1.444-2.253v-3.688a2.553,2.553,0,0,0-1.444-2.107,4.718,4.718,0,0,0-2.95-.8l-2.655.161Zm15.108-.914a1.343,1.343,0,0,0-.815.322.829.829,0,0,0-.324.644v8.3a.708.708,0,0,0,.339.593,1.215,1.215,0,0,0,.8.215,1.339,1.339,0,0,0,.8-.306.809.809,0,0,0,.34-.633v-5.6l3.119-1.738a2.617,2.617,0,0,1,1.116-.372l1.117-.067c.81-.048,1.233.233,1.26.844l.341,6.532a.728.728,0,0,0,.352.627,1.331,1.331,0,0,0,.793.184,1.386,1.386,0,0,0,.82-.308.784.784,0,0,0,.331-.634L365,166.067a2.2,2.2,0,0,0-1.051-1.766,3.676,3.676,0,0,0-2.363-.6l-1.065.064a5.582,5.582,0,0,0-2.373.657l-2.082,1.1v-.585a.717.717,0,0,0-.34-.6,1.184,1.184,0,0,0-.8-.224h0Zm56.331-3.409a1.405,1.405,0,0,0-.846.329.847.847,0,0,0-.341.657v8.458a.74.74,0,0,0,.341.617,1.346,1.346,0,0,0,.846.209,1.454,1.454,0,0,0,.83-.3.833.833,0,0,0,.353-.657v-4.983l3.379-2.4a2.211,2.211,0,0,1,1.1-.459l1.541-.092a1.268,1.268,0,0,1,.839.216.7.7,0,0,1,.354.6v.5a.735.735,0,0,0,.338.618,1.359,1.359,0,0,0,.851.2,1.4,1.4,0,0,0,.841-.316.848.848,0,0,0,.355-.672v-.479a2.162,2.162,0,0,0-1.054-1.833,3.9,3.9,0,0,0-2.524-.634l-1.742.106a4.6,4.6,0,0,0-2.343.906l-1.938,1.358v-1.115a.731.731,0,0,0-.353-.624,1.242,1.242,0,0,0-.83-.219v0Zm22.668-1.372a5.7,5.7,0,0,0-3.188,1.24,3.063,3.063,0,0,0-1.46,2.3v3.79a2.658,2.658,0,0,0,1.5,2.135,5.205,5.205,0,0,0,3.144.856l2.82-.161a5.849,5.849,0,0,0,3.145-1.21,3.029,3.029,0,0,0,1.536-2.327v-3.8a2.626,2.626,0,0,0-1.536-2.171,5.15,5.15,0,0,0-3.145-.819l-2.82.171ZM181.689,174.608a1.112,1.112,0,0,0-.737.313.821.821,0,0,0-.278.594.621.621,0,0,0,.232.477l3.355,3.052-3.633,3.757a.7.7,0,0,0-.194.509.716.716,0,0,0,.292.583,1.029,1.029,0,0,0,.723.2,1.136,1.136,0,0,0,.807-.39l3.321-3.4,3.291,3.024a1.1,1.1,0,0,0,.825.29,1.145,1.145,0,0,0,.7-.286.839.839,0,0,0,.317-.651.562.562,0,0,0-.205-.45l-3.6-3.325,3.43-3.568a.662.662,0,0,0,.135-.47.617.617,0,0,0-.317-.545,1.125,1.125,0,0,0-.7-.185,1.059,1.059,0,0,0-.727.332l-3.147,3.207-3.07-2.812a1.06,1.06,0,0,0-.816-.256h0Zm105.235-6.367a3.771,3.771,0,0,0-1.969.71l-1.9,1.409a2.3,2.3,0,0,0-1.139,1.956v2.226a1.91,1.91,0,0,0,1.01,1.732l2.106,1.322a3.565,3.565,0,0,0,2.1.459l4.663-.266a1.276,1.276,0,0,0,.771-.287.808.808,0,0,0,.326-.631.687.687,0,0,0-.326-.585,1.161,1.161,0,0,0-.771-.21l-4.468.258a1.586,1.586,0,0,1-.963-.2l-1.919-1.168a.634.634,0,0,1-.334-.552v-2.085a.938.938,0,0,1,.428-.788l1.749-1.274a1.556,1.556,0,0,1,.843-.328l4.693-.281a1.272,1.272,0,0,0,.766-.289.79.79,0,0,0,.326-.632.684.684,0,0,0-.326-.585,1.112,1.112,0,0,0-.766-.209l-4.9.3Zm162.783-9.85a1.514,1.514,0,0,0-.878.334.79.79,0,0,0-.361.646l.272,5.529,1.273,3.237a.767.767,0,0,0,.417.406,1.565,1.565,0,0,0,.768.138l1.275-.073a1.451,1.451,0,0,0,1.07-.587l1.333-1.757,1.339,1.625a1.206,1.206,0,0,0,1.072.444l1.308-.075a1.179,1.179,0,0,0,1.135-.72l1.31-3.282.263-5.658a.675.675,0,0,0-.347-.614,1.363,1.363,0,0,0-.873-.217,1.46,1.46,0,0,0-.845.321.967.967,0,0,0-.38.657l-.263,5.3-.838,2.121-1.631-1.977V162.02a.707.707,0,0,0-.363-.612,1.327,1.327,0,0,0-.854-.218,1.53,1.53,0,0,0-.887.322.813.813,0,0,0-.362.655v2.1l-1.693,2.2-.8-1.976-.278-5.272a.725.725,0,0,0-.373-.623,1.266,1.266,0,0,0-.812-.211h0ZM167.75,175.455a3.4,3.4,0,0,0-1.826.655l-.834.587a2.626,2.626,0,0,0-.774.9,2.1,2.1,0,0,0-.3.885v3.755a1.773,1.773,0,0,0,.275.881,2.069,2.069,0,0,0,.705.721l.894.594a3.01,3.01,0,0,0,.844.331,3.773,3.773,0,0,0,1.111.113l5.3-.3a1.127,1.127,0,0,0,.7-.285.767.767,0,0,0,.314-.594.669.669,0,0,0-.3-.563,1.04,1.04,0,0,0-.71-.2l-5.166.3a1.623,1.623,0,0,1-.909-.248l-.583-.368a.788.788,0,0,1-.44-.688v-.477l7.1-.415a1.147,1.147,0,0,0,.71-.286.781.781,0,0,0,.3-.6v-1.988a1.937,1.937,0,0,0-.816-1.732l-.756-.542a3.088,3.088,0,0,0-2.012-.6l-2.817.17Zm100.678-6.092a3.738,3.738,0,0,0-1.959.682l-.9.61a2.759,2.759,0,0,0-.831.932,2.111,2.111,0,0,0-.319.917v3.889a1.788,1.788,0,0,0,.295.911,2.165,2.165,0,0,0,.752.746l.959.614a3.338,3.338,0,0,0,.91.341,4.188,4.188,0,0,0,1.192.115l5.687-.325a1.244,1.244,0,0,0,.747-.3.782.782,0,0,0,.332-.616.684.684,0,0,0-.322-.582,1.129,1.129,0,0,0-.757-.21l-5.549.32a1.787,1.787,0,0,1-.97-.255l-.63-.38a.813.813,0,0,1-.472-.711v-.494l7.622-.445a1.25,1.25,0,0,0,.757-.3.8.8,0,0,0,.322-.619V172.15a1.975,1.975,0,0,0-.871-1.792l-.811-.559a3.393,3.393,0,0,0-2.159-.618l-3.028.183Zm71.672-2.618,2.34-.14a1.639,1.639,0,0,1,.943.2l.8.439a.775.775,0,0,1,.42.741v3.53a.834.834,0,0,1-.42.723l-.69.507a1.916,1.916,0,0,1-1.052.38l-2.624.151a1.375,1.375,0,0,1-.791-.142l-.848-.509a.8.8,0,0,1-.444-.731v-3.522a.872.872,0,0,1,.418-.73l.765-.552a2.213,2.213,0,0,1,1.184-.35h0Zm94.12-5.641,2.5-.15a1.788,1.788,0,0,1,1,.207l.844.452a.794.794,0,0,1,.447.764v3.641a.857.857,0,0,1-.447.747l-.728.524a2.082,2.082,0,0,1-1.119.394l-2.792.161a1.514,1.514,0,0,1-.847-.144l-.9-.523a.817.817,0,0,1-.467-.754v-3.632a.889.889,0,0,1,.44-.754l.814-.571a2.409,2.409,0,0,1,1.26-.363h0ZM217.252,174.127l1.446-.087a1.4,1.4,0,0,1,.89.2l1.7,1.066a.937.937,0,0,1,.434.87v1.811a.913.913,0,0,1-.41.74l-1.649,1.19a1.6,1.6,0,0,1-.8.356l-1.694.1a1.108,1.108,0,0,1-.68-.19l-.679-.427a.723.723,0,0,1-.408-.6v-3.537a.805.805,0,0,1,.347-.655l.665-.506a1.472,1.472,0,0,1,.832-.321Zm-49.36,2.977,2.519-.151a1.439,1.439,0,0,1,.814.256l.589.386a.754.754,0,0,1,.345.683v1.147l-6.094.36v-1.273a.781.781,0,0,1,.394-.658l.583-.433a1.547,1.547,0,0,1,.849-.318Zm100.688-6.033,2.707-.162a1.589,1.589,0,0,1,.874.263l.628.4a.776.776,0,0,1,.375.706v1.189l-6.544.386v-1.318a.807.807,0,0,1,.423-.682l.63-.45a1.682,1.682,0,0,1,.906-.331Zm-70.826,4.65a1.192,1.192,0,0,0-.731.29.78.78,0,0,0-.3.6v.729a.734.734,0,0,0,.3.586,1.072,1.072,0,0,0,.731.2l8.293-.489a1.145,1.145,0,0,0,.722-.29.825.825,0,0,0,.307-.624V176a.65.65,0,0,0-.316-.575,1.111,1.111,0,0,0-.712-.2l-8.293.5ZM472.117,160.9a1.511,1.511,0,0,0-.88.323.847.847,0,0,0-.355.658.778.778,0,0,0,.355.641,1.3,1.3,0,0,0,.851.221l3.755-.22v3.818a.733.733,0,0,0,.367.625,1.458,1.458,0,0,0,.9.211,1.551,1.551,0,0,0,.872-.313.839.839,0,0,0,.368-.668v-4.73l-.005,0a.729.729,0,0,0-.379-.628,1.3,1.3,0,0,0-.855-.229l-4.994.3Zm-95.151,6.458a1.435,1.435,0,0,0-.827.3.818.818,0,0,0-.334.649v1.521a.739.739,0,0,0,.318.6,1.22,1.22,0,0,0,.816.215l2.371-.137a1.364,1.364,0,0,0,.812-.31.859.859,0,0,0,.345-.663v-1.5a.683.683,0,0,0-.356-.6,1.269,1.269,0,0,0-.828-.214l-2.318.137ZM200.83,194.425a1.185,1.185,0,0,0-.733.286.77.77,0,0,0-.291.6l-.028.731a.677.677,0,0,0,.282.559,1.078,1.078,0,0,0,.747.219l1.1-.057a1.133,1.133,0,0,0,.72-.285.817.817,0,0,0,.306-.621v-.711a.677.677,0,0,0-.306-.569,1.031,1.031,0,0,0-.72-.209l-1.077.057Zm155.1-7.49a2.585,2.585,0,0,0-1.547.582,1.562,1.562,0,0,0-.652,1.224v10.465a1.4,1.4,0,0,0,.637,1.167,2.4,2.4,0,0,0,1.562.417l7.115-.343a2.593,2.593,0,0,0,1.555-.569,1.565,1.565,0,0,0,.657-1.234V188.139a1.387,1.387,0,0,0-.657-1.159,2.308,2.308,0,0,0-1.529-.422l-7.141.378Zm-19.345,1.047a1.345,1.345,0,0,0-.8.3.793.793,0,0,0-.325.626.733.733,0,0,0,.325.6,1.261,1.261,0,0,0,.8.2l3.409-.178v10.277l-3.466.169a1.366,1.366,0,0,0-.8.286.778.778,0,0,0-.32.617.759.759,0,0,0,.32.617,1.229,1.229,0,0,0,.8.22l9.124-.44a1.331,1.331,0,0,0,.8-.29.811.811,0,0,0,.338-.64v-4.511a.7.7,0,0,0-.338-.594,1.194,1.194,0,0,0-.8-.219,1.343,1.343,0,0,0-.81.3.805.805,0,0,0-.322.627V199.6l-2.265.111V187.682l-5.671.3Zm-86.152,5.3a1.236,1.236,0,0,0-.759.291.776.776,0,0,0-.306.607v2.072l-1.113.057a1.235,1.235,0,0,0-.758.29.776.776,0,0,0-.3.61.7.7,0,0,0,.3.587,1.163,1.163,0,0,0,.758.2l1.089-.056v5.477a2.093,2.093,0,0,0,.948,1.744,3.419,3.419,0,0,0,2.264.637l2.131-.1a3.642,3.642,0,0,0,2.315-.867,2.222,2.222,0,0,0,.914-1.58.706.706,0,0,0-.3-.6,1.081,1.081,0,0,0-.763-.214,1.132,1.132,0,0,0-1.085.79,1.157,1.157,0,0,1-1.128.779l-2.082.1a1.179,1.179,0,0,1-.77-.214.7.7,0,0,1-.317-.58v-5.481l4.311-.22a1.251,1.251,0,0,0,.747-.279.8.8,0,0,0,.323-.621.708.708,0,0,0-.323-.58,1.116,1.116,0,0,0-.747-.213l-4.286.221v-2.073a.689.689,0,0,0-.331-.574A1.087,1.087,0,0,0,250.43,193.279ZM413.6,185.426a1.422,1.422,0,0,0-.836.309.824.824,0,0,0-.353.647v1.527a.747.747,0,0,0,.342.619,1.359,1.359,0,0,0,.847.214l2.4-.123a1.406,1.406,0,0,0,.832-.3.828.828,0,0,0,.354-.656v-1.53a.713.713,0,0,0-.354-.611A1.253,1.253,0,0,0,416,185.3l-2.4.126Zm-57.588,3.281,6.979-.365v10.353l-6.979.341V188.706Zm-52.044,3.241a1.3,1.3,0,0,0-.787.3.813.813,0,0,0-.318.623v1.484a.721.721,0,0,0,.3.6,1.177,1.177,0,0,0,.777.2l2.258-.115a1.268,1.268,0,0,0,.763-.3.783.783,0,0,0,.339-.621v-1.487a.735.735,0,0,0-.329-.57,1.143,1.143,0,0,0-.8-.234l-2.207.115ZM283,194.1a1.3,1.3,0,0,0-.786.295.789.789,0,0,0-.323.615v12.18a.72.72,0,0,0,.323.6,1.216,1.216,0,0,0,.786.217,1.23,1.23,0,0,0,.767-.29.8.8,0,0,0,.323-.633V203.3l.842.62a3.242,3.242,0,0,0,2.149.589l.484-.023a3.9,3.9,0,0,0,2.233-.738l1.781-1.29a2.685,2.685,0,0,0,1.292-2.2v-2.672a2.292,2.292,0,0,0-1.2-2.01l-1.821-1.142a3.518,3.518,0,0,0-2.128-.56l-.509.026a5.063,5.063,0,0,0-3.12,1.546V194.9a.7.7,0,0,0-.324-.582A1.156,1.156,0,0,0,283,194.1Zm90.495-4.683a1.4,1.4,0,0,0-.835.305.808.808,0,0,0-.344.634v12.557a.735.735,0,0,0,.344.62,1.434,1.434,0,0,0,1.65-.078.819.819,0,0,0,.344-.653v-3.9l.895.638a3.534,3.534,0,0,0,2.289.6l.509-.025a4.231,4.231,0,0,0,2.373-.765l1.9-1.333a2.751,2.751,0,0,0,1.368-2.267V193a2.344,2.344,0,0,0-1.272-2.071l-1.935-1.174a3.842,3.842,0,0,0-2.267-.574l-.536.028a5.471,5.471,0,0,0-3.322,1.6v-.569a.717.717,0,0,0-.344-.6A1.257,1.257,0,0,0,373.492,189.417ZM135.6,202.1a3.035,3.035,0,0,0-1.821.732.837.837,0,0,0-.954-.57,1.118,1.118,0,0,0-.7.277.756.756,0,0,0-.277.585v7.684l-.005,0a.683.683,0,0,0,.3.553,1.116,1.116,0,0,0,1.384-.067.765.765,0,0,0,.278-.581v-5.774l1.412-1.055a.679.679,0,0,1,.386-.146c.288-.015.431.117.431.394v6.451a.691.691,0,0,0,.292.565,1.039,1.039,0,0,0,.692.2,1.088,1.088,0,0,0,.687-.267.734.734,0,0,0,.292-.575V204.58l1.169-.873a.759.759,0,0,1,.409-.166c.242-.013.371.157.387.5l.234,6.36a.722.722,0,0,0,.306.558,1.024,1.024,0,0,0,.7.208,1.1,1.1,0,0,0,.689-.275.766.766,0,0,0,.293-.587l-.279-6.626a1.689,1.689,0,0,0-.73-1.325,2.328,2.328,0,0,0-1.58-.462,3.191,3.191,0,0,0-2.055.938,2.39,2.39,0,0,0-1.94-.732h0Zm29.438-1.519a1.126,1.126,0,0,0-.715.292.785.785,0,0,0-.284.6v7.777a.7.7,0,0,0,.284.571,1.077,1.077,0,0,0,.715.2,1.158,1.158,0,0,0,.706-.267.775.775,0,0,0,.3-.6v-4.58l2.851-2.168a1.761,1.761,0,0,1,.933-.408l1.3-.066a1.011,1.011,0,0,1,.709.208.673.673,0,0,1,.3.564v.459a.7.7,0,0,0,.286.572,1.085,1.085,0,0,0,.719.2,1.117,1.117,0,0,0,.71-.28.79.79,0,0,0,.3-.614v-.44a2.063,2.063,0,0,0-.89-1.7,3.128,3.128,0,0,0-2.132-.616l-1.467.076a3.672,3.672,0,0,0-1.985.809l-1.634,1.225v-1.025a.7.7,0,0,0-.3-.582,1.009,1.009,0,0,0-.706-.208h0Zm19.073-.984a3.709,3.709,0,0,0-2.1.735l-.835.624a2.273,2.273,0,0,0-.649.807,2.465,2.465,0,0,0-.264,1.111V205.6a1.942,1.942,0,0,0,.264.949,2.022,2.022,0,0,0,.649.715l.76.514a3.555,3.555,0,0,0,2.172.57l1.562-.076a4.669,4.669,0,0,0,2.783-1.3v2.516a.688.688,0,0,1-.349.588l-.694.517a1.336,1.336,0,0,1-.749.282l-4.4.209a1.183,1.183,0,0,0-.723.268.762.762,0,0,0-.287.6.691.691,0,0,0,.287.575,1.1,1.1,0,0,0,.723.2l4.4-.207a3.876,3.876,0,0,0,1.066-.217,3.116,3.116,0,0,0,.894-.436l.825-.622a2.306,2.306,0,0,0,1.045-1.852v-9.277a.663.663,0,0,0-.317-.563,1.07,1.07,0,0,0-.727-.209,1.153,1.153,0,0,0-.713.283.77.77,0,0,0-.3.594l.025.324-.7-.444a3.557,3.557,0,0,0-2.178-.576l-1.465.075Zm14.666-.757a1.159,1.159,0,0,0-.732.3.792.792,0,0,0-.291.607.7.7,0,0,0,.291.566,1.081,1.081,0,0,0,.732.21l2.076-.106v6.2l-2.1.1a1.185,1.185,0,0,0-.732.283.783.783,0,0,0-.3.6.714.714,0,0,0,.3.578,1.113,1.113,0,0,0,.732.2l6.26-.3a1.2,1.2,0,0,0,.726-.275.783.783,0,0,0,.307-.609.668.668,0,0,0-.321-.567,1.089,1.089,0,0,0-.735-.212l-2.058.1v-7.032a.7.7,0,0,0-.306-.577,1.008,1.008,0,0,0-.72-.222l-3.129.162Zm15.62-.806a1.174,1.174,0,0,0-.74.3.8.8,0,0,0-.3.611v7.909a.7.7,0,0,0,.308.573,1.088,1.088,0,0,0,.731.213,1.169,1.169,0,0,0,.726-.283.78.78,0,0,0,.309-.6V201.42l2.833-1.627a2.269,2.269,0,0,1,1.014-.338l1.014-.052c.736-.038,1.119.235,1.144.818l.31,6.225a.721.721,0,0,0,.32.6,1.172,1.172,0,0,0,.72.183,1.211,1.211,0,0,0,.745-.285.748.748,0,0,0,.3-.6l-.286-6.33a2.149,2.149,0,0,0-.955-1.694,3.247,3.247,0,0,0-2.146-.6l-.967.05a4.841,4.841,0,0,0-2.156.6l-1.891,1.018v-.554a.7.7,0,0,0-.309-.58,1.049,1.049,0,0,0-.726-.222Zm54.182-2.8a4.888,4.888,0,0,0-2.855,1.139,2.868,2.868,0,0,0-1.3,2.157v3.586a2.553,2.553,0,0,0,1.342,2.037,4.52,4.52,0,0,0,2.815.848l2.53-.122a5,5,0,0,0,2.811-1.11,2.849,2.849,0,0,0,1.375-2.188v-3.6a2.528,2.528,0,0,0-1.375-2.071,4.445,4.445,0,0,0-2.811-.806l-2.53.13Zm-117.635,6.09a1.134,1.134,0,0,0-.707.279.764.764,0,0,0-.286.59.68.68,0,0,0,.295.556,1.022,1.022,0,0,0,.7.207l3.766-.192a1,1,0,0,1,.7.207.671.671,0,0,1,.3.561l.022,1.154a5.2,5.2,0,0,0-.924-.069l-3.884.2a3.4,3.4,0,0,0-2.126.835,2.3,2.3,0,0,0-.869,1.778v.951a2.068,2.068,0,0,0,.869,1.7,3.113,3.113,0,0,0,2.126.617l3.352-.162,1.679-.9a.7.7,0,0,0,.3.569,1.092,1.092,0,0,0,.724.2,1.153,1.153,0,0,0,.7-.27.774.774,0,0,0,.3-.6l-.251-6.111a2.141,2.141,0,0,0-.911-1.694,3.069,3.069,0,0,0-2.1-.6l-3.767.194Zm241.744-12.475a1.325,1.325,0,0,0-.851.328.86.86,0,0,0-.321.641.654.654,0,0,0,.268.514l3.875,3.3-4.2,4.014a.727.727,0,0,0-.225.55.756.756,0,0,0,.337.629,1.255,1.255,0,0,0,.835.223,1.339,1.339,0,0,0,.932-.414l3.836-3.643,3.808,3.273a1.334,1.334,0,0,0,.954.312,1.359,1.359,0,0,0,.809-.3.87.87,0,0,0,.367-.693.592.592,0,0,0-.237-.485l-4.162-3.594,3.963-3.821a.674.674,0,0,0,.156-.5.653.653,0,0,0-.367-.584,1.381,1.381,0,0,0-.814-.2,1.249,1.249,0,0,0-.835.352l-3.641,3.43-3.541-3.04a1.3,1.3,0,0,0-.948-.28h0Zm-105.611,6.785.639-.033a1.121,1.121,0,0,1,.674.181l1.834,1.137a.83.83,0,0,1,.48.7v2.764a.859.859,0,0,1-.43.742l-1.7,1.255a1.591,1.591,0,0,1-.854.359l-.559.027a1.668,1.668,0,0,1-1.023-.408l-1.57-1.156a.961.961,0,0,1-.478-.747v-2.191a1,1,0,0,1,.423-.772l1.625-1.343a1.814,1.814,0,0,1,.943-.518ZM377.835,191l.674-.034a1.226,1.226,0,0,1,.716.185l1.95,1.17a.854.854,0,0,1,.51.722v2.85a.884.884,0,0,1-.457.766l-1.806,1.3a1.735,1.735,0,0,1-.913.372l-.594.029a1.809,1.809,0,0,1-1.087-.419l-1.669-1.189a.986.986,0,0,1-.508-.769v-2.258a1.036,1.036,0,0,1,.455-.8l1.722-1.387a1.964,1.964,0,0,1,1.007-.536ZM268.85,196.922l2.229-.114a1.544,1.544,0,0,1,.9.207l.761.437a.776.776,0,0,1,.4.732v3.445a.8.8,0,0,1-.4.7l-.657.488a1.786,1.786,0,0,1-1,.364l-2.5.122a1.3,1.3,0,0,1-.754-.146l-.807-.505a.8.8,0,0,1-.423-.718V198.5a.846.846,0,0,1,.4-.709l.729-.535a2.053,2.053,0,0,1,1.128-.33Zm-84.711,4.327,1.362-.069a1.362,1.362,0,0,1,.874.22l1.657,1.069a.809.809,0,0,1,.424.717v1.249a.829.829,0,0,1-.377.67l-1.606,1.191a1.525,1.525,0,0,1-.8.33l-1.655.081a1.112,1.112,0,0,1-.664-.183l-.668-.447a.759.759,0,0,1-.394-.611v-2.749a.813.813,0,0,1,.362-.687l.626-.455a1.556,1.556,0,0,1,.859-.327Zm47.1-1.954a1.217,1.217,0,0,0-.749.288.766.766,0,0,0-.3.6v.741a.735.735,0,0,0,.3.592,1.113,1.113,0,0,0,.749.212l8.49-.425a1.183,1.183,0,0,0,.744-.288.816.816,0,0,0,.314-.625v-.744a.667.667,0,0,0-.329-.585,1.151,1.151,0,0,0-.73-.2l-8.49.432Zm182.3-7.721a1.433,1.433,0,0,0-.847.308.825.825,0,0,0-.342.642.776.776,0,0,0,.342.632,1.239,1.239,0,0,0,.82.225l3.621-.18v3.742a.738.738,0,0,0,.354.621,1.375,1.375,0,0,0,.86.216,1.457,1.457,0,0,0,.839-.3.825.825,0,0,0,.354-.656v-4.641a.732.732,0,0,0-.371-.62,1.242,1.242,0,0,0-.823-.233l-4.808.242Zm-109.572,6.314v0a1.328,1.328,0,0,0-.787.283.8.8,0,0,0-.318.63v1.484a.734.734,0,0,0,.3.591,1.149,1.149,0,0,0,.777.218l2.258-.111a1.277,1.277,0,0,0,.774-.294.836.836,0,0,0,.329-.643v-1.467a.679.679,0,0,0-.339-.586,1.2,1.2,0,0,0-.789-.221l-2.207.11Zm-153.043,8.6,3.907-.194a1.033,1.033,0,0,1,.7.2.716.716,0,0,1,.3.569l.059.685L153.72,208.9l-2.8.137a1.027,1.027,0,0,1-.7-.208.688.688,0,0,1-.295-.56v-.911a.763.763,0,0,1,.286-.589,1.127,1.127,0,0,1,.708-.278h0Zm17.125,14.693a1.157,1.157,0,0,0-.721.276.749.749,0,0,0-.285.587l-.022.726a.678.678,0,0,0,.275.555,1.036,1.036,0,0,0,.725.22l1.075-.047a1.106,1.106,0,0,0,.708-.275.8.8,0,0,0,.3-.607v-.707a.672.672,0,0,0-.3-.562,1.017,1.017,0,0,0-.708-.213l-1.047.046Zm66.342-2.934a1.213,1.213,0,0,0-.75.283.767.767,0,0,0-.3.6l-.025.743a.689.689,0,0,0,.288.568,1.1,1.1,0,0,0,.76.225l1.126-.049a1.171,1.171,0,0,0,.742-.282.809.809,0,0,0,.313-.622v-.723a.683.683,0,0,0-.313-.575,1.083,1.083,0,0,0-.742-.217l-1.1.049ZM149.952,222.7a1.126,1.126,0,0,0-.707.274.753.753,0,0,0-.281.587.706.706,0,0,0,.281.57,1.066,1.066,0,0,0,.707.2l2.005-.087v9.626l-1.978.079a1.128,1.128,0,0,0-.712.271.768.768,0,0,0-.281.586.731.731,0,0,0,.281.578,1.053,1.053,0,0,0,.712.215l6-.236a1.071,1.071,0,0,0,.7-.271.79.79,0,0,0,.3-.6.7.7,0,0,0-.3-.565,1.026,1.026,0,0,0-.7-.215l-2.011.08V223.339a.693.693,0,0,0-.3-.563,1.031,1.031,0,0,0-.7-.212l-3.023.133Zm100.478-3.671a1.229,1.229,0,0,0-.759.284.769.769,0,0,0-.306.6v2.072l-1.113.047a1.228,1.228,0,0,0-.758.283.762.762,0,0,0-.3.6.705.705,0,0,0,.3.59,1.172,1.172,0,0,0,.758.211l1.089-.046v5.477a2.114,2.114,0,0,0,.948,1.752,3.44,3.44,0,0,0,2.264.653l2.131-.084a3.613,3.613,0,0,0,2.315-.847,2.192,2.192,0,0,0,.914-1.568.72.72,0,0,0-.3-.6,1.088,1.088,0,0,0-.763-.221,1.12,1.12,0,0,0-1.085.78,1.148,1.148,0,0,1-1.128.773l-2.082.083a1.185,1.185,0,0,1-.77-.225.7.7,0,0,1-.317-.579v-5.481l4.311-.182a1.247,1.247,0,0,0,.747-.276.794.794,0,0,0,.323-.618.709.709,0,0,0-.323-.579,1.123,1.123,0,0,0-.747-.22l-4.286.183v-2.073a.7.7,0,0,0-.331-.577,1.094,1.094,0,0,0-.73-.22Zm71.452-1.629a1.307,1.307,0,0,0-.8.292.8.8,0,0,0-.316.62V219.8a.726.726,0,0,0,.3.605,1.207,1.207,0,0,0,.787.216l2.285-.1a1.278,1.278,0,0,0,.773-.29.792.792,0,0,0,.348-.625v-1.5a.739.739,0,0,0-.333-.573,1.183,1.183,0,0,0-.814-.243l-2.234.1Zm-155.839,8.126a1.114,1.114,0,0,0-.715.282.784.784,0,0,0-.289.6.709.709,0,0,0,.289.566,1.054,1.054,0,0,0,.715.214l2.028-.085v6.123l-2.056.082a1.132,1.132,0,0,0-.715.272.771.771,0,0,0-.284.589.712.712,0,0,0,.284.574,1.086,1.086,0,0,0,.715.2l6.121-.241a1.144,1.144,0,0,0,.7-.261.769.769,0,0,0,.3-.6.671.671,0,0,0-.309-.567,1.063,1.063,0,0,0-.719-.216l-2.011.08v-6.951a.7.7,0,0,0-.3-.574.994.994,0,0,0-.708-.222l-3.053.13Zm18.069-.772a3.681,3.681,0,0,0-2.1.716l-.835.617a2.239,2.239,0,0,0-.649.8,2.449,2.449,0,0,0-.264,1.109v2.728a1.954,1.954,0,0,0,.264.951,2.047,2.047,0,0,0,.649.721l.76.521a3.578,3.578,0,0,0,2.172.59l1.562-.062a4.634,4.634,0,0,0,2.784-1.283v2.52a.68.68,0,0,1-.349.585l-.694.507a1.328,1.328,0,0,1-.749.275l-4.4.17a1.179,1.179,0,0,0-.724.266.746.746,0,0,0-.287.589.7.7,0,0,0,.287.578,1.106,1.106,0,0,0,.724.21l4.4-.168a3.88,3.88,0,0,0,1.066-.207,3.084,3.084,0,0,0,.894-.428l.825-.615a2.282,2.282,0,0,0,1.045-1.843v-9.277a.67.67,0,0,0-.317-.566,1.079,1.079,0,0,0-.728-.215,1.133,1.133,0,0,0-.713.276.762.762,0,0,0-.3.592l.025.324-.7-.451a3.582,3.582,0,0,0-2.178-.6l-1.464.063Zm13.643-.583a1.145,1.145,0,0,0-.731.285.789.789,0,0,0-.3.6v7.867a.7.7,0,0,0,.3.569,1.081,1.081,0,0,0,.722.222,1.147,1.147,0,0,0,.718-.279.763.763,0,0,0,.305-.593v-5.306l2.8-1.587a2.213,2.213,0,0,1,1-.327l1-.042c.727-.03,1.1.241,1.126.82l.306,6.195a.722.722,0,0,0,.32.6,1.251,1.251,0,0,0,1.448-.087.726.726,0,0,0,.293-.594l-.278-6.3a2.167,2.167,0,0,0-.948-1.692,3.217,3.217,0,0,0-2.121-.61l-.951.041a4.727,4.727,0,0,0-2.13.574l-1.869,1v-.554a.706.706,0,0,0-.305-.579,1.037,1.037,0,0,0-.718-.224Zm34.535-1.475a1.18,1.18,0,0,0-.749.289.8.8,0,0,0-.3.612.719.719,0,0,0,.3.579,1.122,1.122,0,0,0,.749.218l2.125-.09v6.268l-2.154.086a1.2,1.2,0,0,0-.749.28.782.782,0,0,0-.3.6.722.722,0,0,0,.3.587,1.155,1.155,0,0,0,.749.209l6.414-.252a1.212,1.212,0,0,0,.739-.268.782.782,0,0,0,.314-.613.682.682,0,0,0-.323-.58,1.132,1.132,0,0,0-.753-.22l-2.107.084v-7.115a.712.712,0,0,0-.313-.587,1.058,1.058,0,0,0-.742-.226l-3.2.137Zm53.493-2.285a3.434,3.434,0,0,0-2.018.755.944.944,0,0,0-1.065-.6,1.265,1.265,0,0,0-.776.287.769.769,0,0,0-.308.611v8.1a.717.717,0,0,0,.323.589,1.236,1.236,0,0,0,.791.223,1.173,1.173,0,0,0,.746-.284.8.8,0,0,0,.314-.615v-6.082l1.564-1.1a.773.773,0,0,1,.429-.151c.32-.013.484.126.484.418v6.8a.723.723,0,0,0,.324.6,1.193,1.193,0,0,0,.763.217,1.246,1.246,0,0,0,.764-.277.756.756,0,0,0,.325-.6v-6.257l1.3-.909a.881.881,0,0,1,.46-.172c.269-.011.408.164.425.531l.26,6.71a.756.756,0,0,0,.34.591,1.188,1.188,0,0,0,.781.224,1.241,1.241,0,0,0,.766-.285.787.787,0,0,0,.326-.617l-.31-6.987a1.776,1.776,0,0,0-.806-1.406,2.7,2.7,0,0,0-1.756-.494,3.619,3.619,0,0,0-2.289.971,2.748,2.748,0,0,0-2.155-.781Zm-150.755,6.458a1.1,1.1,0,0,0-.7.271.741.741,0,0,0-.278.58.69.69,0,0,0,.291.559,1,1,0,0,0,.686.212l3.728-.157a.994.994,0,0,1,.693.213.668.668,0,0,1,.293.557l.022,1.152a5.166,5.166,0,0,0-.913-.081L135,230.33a3.306,3.306,0,0,0-2.1.81,2.271,2.271,0,0,0-.86,1.764v.946a2.081,2.081,0,0,0,.86,1.7,3.073,3.073,0,0,0,2.1.63l3.318-.13,1.66-.876a.7.7,0,0,0,.293.569,1.081,1.081,0,0,0,.716.2,1.112,1.112,0,0,0,.689-.258.763.763,0,0,0,.293-.592l-.243-6.079a2.153,2.153,0,0,0-.905-1.692,3.033,3.033,0,0,0-2.07-.618l-3.728.159Zm133.4-5.7a3.681,3.681,0,0,0-1.959.651l-.9.594a2.675,2.675,0,0,0-.831.913,2.078,2.078,0,0,0-.319.911v3.893a1.815,1.815,0,0,0,.295.917,2.223,2.223,0,0,0,.752.759l.959.627a3.381,3.381,0,0,0,.91.361,4.21,4.21,0,0,0,1.192.136l5.687-.224a1.215,1.215,0,0,0,.747-.283.773.773,0,0,0,.332-.614.693.693,0,0,0-.322-.584,1.144,1.144,0,0,0-.757-.223l-5.549.221a1.8,1.8,0,0,1-.97-.276l-.63-.391a.825.825,0,0,1-.472-.716v-.5l7.622-.31a1.233,1.233,0,0,0,.757-.284.778.778,0,0,0,.322-.61v-2.059a2.014,2.014,0,0,0-.871-1.808l-.811-.574a3.445,3.445,0,0,0-2.159-.66l-3.028.129Zm34.187-1.46a3.226,3.226,0,0,0-2.031.763,2.119,2.119,0,0,0-.811,1.631,1.73,1.73,0,0,0,.458,1.125,2.694,2.694,0,0,0,1.31.8l5.923,1.838c.491.151.734.425.734.814a.929.929,0,0,1-.329.688,1.242,1.242,0,0,1-.815.32l-4.111.164a2.206,2.206,0,0,1-1.392-.314,1.418,1.418,0,0,0-.892-.33,1.321,1.321,0,0,0-.836.3.782.782,0,0,0-.312.606q0,.511.982,1.015a4.3,4.3,0,0,0,2.147.458l4.465-.176a3.773,3.773,0,0,0,2.278-.859,2.4,2.4,0,0,0,1.019-1.919,2.186,2.186,0,0,0-.583-1.488,3.026,3.026,0,0,0-1.464-.934l-5.871-1.786c-.323-.1-.484-.266-.484-.491,0-.321.242-.49.731-.511l5-.21a1.327,1.327,0,0,1,.906.329,1.4,1.4,0,0,0,.962.33,1.286,1.286,0,0,0,.74-.268.739.739,0,0,0,.34-.618c0-.349-.3-.694-.907-1.031a3.834,3.834,0,0,0-2.1-.463l-5.056.216ZM184.139,226.4l1.362-.057a1.365,1.365,0,0,1,.874.228l1.657,1.081a.817.817,0,0,1,.424.72v1.253a.814.814,0,0,1-.377.662l-1.606,1.177a1.519,1.519,0,0,1-.8.327l-1.654.067a1.119,1.119,0,0,1-.664-.189l-.668-.457a.762.762,0,0,1-.394-.611v-2.749a.8.8,0,0,1,.362-.684l.627-.45a1.542,1.542,0,0,1,.859-.32h0Zm84.441-3.518,2.707-.114a1.6,1.6,0,0,1,.874.275l.627.41a.8.8,0,0,1,.376.717v1.185l-6.544.269V224.31a.79.79,0,0,1,.423-.675l.63-.443a1.65,1.65,0,0,1,.906-.31Zm-54.182,2.69a1.192,1.192,0,0,0-.74.279.761.761,0,0,0-.3.6v.733a.752.752,0,0,0,.3.595,1.1,1.1,0,0,0,.74.218l8.39-.345a1.159,1.159,0,0,0,.735-.279.811.811,0,0,0,.311-.622v-.735a.671.671,0,0,0-.325-.584,1.141,1.141,0,0,0-.721-.207l-8.39.352Zm107.484-2.2a1.345,1.345,0,0,0-.8.282.785.785,0,0,0-.317.631v1.493a.733.733,0,0,0,.3.594,1.175,1.175,0,0,0,.787.226l2.286-.092a1.3,1.3,0,0,0,.788-.289.824.824,0,0,0,.333-.64V224.1a.7.7,0,0,0-.348-.6,1.222,1.222,0,0,0-.8-.225l-2.234.092ZM135,231.993l3.867-.158a1.022,1.022,0,0,1,.693.2.722.722,0,0,1,.293.568l.058.686-2.141,1.119-2.77.111a1,1,0,0,1-.686-.214.685.685,0,0,1-.291-.556v-.909a.74.74,0,0,1,.278-.579,1.1,1.1,0,0,1,.7-.27h0Zm68.125,13.686a4.428,4.428,0,0,0-2.7.935,2.677,2.677,0,0,0-1.076,2.149v.642l-1.075.036a1.111,1.111,0,0,0-.755.284.785.785,0,0,0-.267.582.709.709,0,0,0,.291.571,1.094,1.094,0,0,0,.732.222l1.051-.035v7.046a.715.715,0,0,0,.305.583,1.152,1.152,0,0,0,.747.213,1.165,1.165,0,0,0,.719-.258.766.766,0,0,0,.306-.6V251l2.08-.065a1.154,1.154,0,0,0,.725-.271.764.764,0,0,0,.306-.6.713.713,0,0,0-.306-.583,1.066,1.066,0,0,0-.725-.212l-2.056.069v-.646a1.139,1.139,0,0,1,.48-.933,2.083,2.083,0,0,1,1.223-.4l2.412-.083a1.155,1.155,0,0,0,.726-.273.766.766,0,0,0,.307-.6.717.717,0,0,0-.307-.591,1.061,1.061,0,0,0-.726-.222l-2.412.085Zm12.3-.431a1.185,1.185,0,0,0-.741.274.749.749,0,0,0-.294.594.723.723,0,0,0,.294.586,1.142,1.142,0,0,0,.741.215l2.1-.072V256.7l-2.072.064a1.176,1.176,0,0,0-.741.271.77.77,0,0,0-.3.594.761.761,0,0,0,.3.6,1.115,1.115,0,0,0,.741.226l6.287-.191a1.127,1.127,0,0,0,.73-.271.8.8,0,0,0,.31-.618.708.708,0,0,0-.31-.576,1.1,1.1,0,0,0-.73-.226l-2.107.065v-10.7a.7.7,0,0,0-.31-.575,1.1,1.1,0,0,0-.733-.223Zm87.429-2.31a1.279,1.279,0,0,0-.787.283.772.772,0,0,0-.312.617v2.109l-1.154.039a1.278,1.278,0,0,0-.785.282.764.764,0,0,0-.312.612.721.721,0,0,0,.312.6,1.238,1.238,0,0,0,.785.222l1.129-.038v5.576a2.165,2.165,0,0,0,.983,1.792,3.639,3.639,0,0,0,2.347.685l2.209-.067a3.756,3.756,0,0,0,2.4-.842,2.2,2.2,0,0,0,.948-1.588.74.74,0,0,0-.319-.618,1.273,1.273,0,0,0-1.91.553,1.174,1.174,0,0,1-1.169.774l-2.158.067a1.262,1.262,0,0,1-.8-.231.721.721,0,0,1-.328-.592v-5.581l4.469-.148a1.3,1.3,0,0,0,.775-.274.789.789,0,0,0,.329-.626.72.72,0,0,0-.329-.593,1.186,1.186,0,0,0-.775-.23l-4.443.15v-2.111a.72.72,0,0,0-.343-.595,1.168,1.168,0,0,0-.762-.229Zm54.373-1.893a1.34,1.34,0,0,0-.816.289.782.782,0,0,0-.324.628v2.148l-1.2.04a1.34,1.34,0,0,0-.815.288.78.78,0,0,0-.329.624.734.734,0,0,0,.329.614,1.3,1.3,0,0,0,.815.225l1.165-.039v5.679a2.2,2.2,0,0,0,1.025,1.824,3.823,3.823,0,0,0,2.434.7l2.292-.07a3.928,3.928,0,0,0,2.484-.859,2.234,2.234,0,0,0,.983-1.618.746.746,0,0,0-.326-.629,1.21,1.21,0,0,0-.82-.235,1.183,1.183,0,0,0-1.161.8,1.219,1.219,0,0,1-1.213.789l-2.239.069a1.328,1.328,0,0,1-.833-.235.731.731,0,0,1-.34-.6v-5.684l4.641-.154a1.359,1.359,0,0,0,.8-.28.8.8,0,0,0,.342-.638.73.73,0,0,0-.342-.6,1.247,1.247,0,0,0-.8-.234l-4.609.156v-2.15a.73.73,0,0,0-.356-.605,1.229,1.229,0,0,0-.79-.233Zm18.519.082a1.336,1.336,0,0,0-.81.29.792.792,0,0,0-.344.629v1.512a.75.75,0,0,0,.328.618,1.325,1.325,0,0,0,.826.222l2.343-.078a1.351,1.351,0,0,0,.817-.278.8.8,0,0,0,.345-.642v-1.515a.715.715,0,0,0-.345-.606,1.244,1.244,0,0,0-.817-.234l-2.343.081Zm-39.145,3.619a1.289,1.289,0,0,0-.8.3.807.807,0,0,0-.325.632v8.252a.751.751,0,0,0,.325.611,1.281,1.281,0,0,0,.8.222,1.315,1.315,0,0,0,.79-.271.793.793,0,0,0,.336-.632V249l3.215-2.25a2.015,2.015,0,0,1,1.051-.418l1.466-.049a1.2,1.2,0,0,1,.8.233.709.709,0,0,1,.337.6v.487a.745.745,0,0,0,.322.612,1.4,1.4,0,0,0,1.609-.06.807.807,0,0,0,.338-.646v-.467a2.191,2.191,0,0,0-1-1.817,3.716,3.716,0,0,0-2.4-.686l-1.658.056a4.2,4.2,0,0,0-2.23.821l-1.845,1.273V245.6a.741.741,0,0,0-.336-.618,1.186,1.186,0,0,0-.79-.236Zm-87.923,2.992a1.156,1.156,0,0,0-.773.3.808.808,0,0,0-.291.6.647.647,0,0,0,.243.494l3.516,3.213-3.807,3.75a.687.687,0,0,0-.2.516.748.748,0,0,0,.306.6,1.117,1.117,0,0,0,.758.228,1.168,1.168,0,0,0,.846-.378l3.48-3.4,3.455,3.184a1.225,1.225,0,0,0,1.6.044.829.829,0,0,0,.333-.658.585.585,0,0,0-.215-.466l-3.776-3.5,3.595-3.562a.663.663,0,0,0,.142-.482.642.642,0,0,0-.333-.563,1.225,1.225,0,0,0-.738-.208,1.1,1.1,0,0,0-.762.32l-3.3,3.2-3.213-2.96a1.165,1.165,0,0,0-.861-.284h0Zm72.054-2.435a1.3,1.3,0,0,0-.8.284.775.775,0,0,0-.316.62.722.722,0,0,0,.332.595,1.2,1.2,0,0,0,.781.231l4.243-.141a1.169,1.169,0,0,1,.784.232.713.713,0,0,1,.333.6l.031,1.225a6.193,6.193,0,0,0-1.04-.089l-4.376.142a3.889,3.889,0,0,0-2.387.849,2.353,2.353,0,0,0-.978,1.875v1.009a2.195,2.195,0,0,0,.978,1.821,3.682,3.682,0,0,0,2.387.687l3.777-.115,1.89-.923a.737.737,0,0,0,.333.609,1.425,1.425,0,0,0,1.6-.049.791.791,0,0,0,.334-.63l-.277-6.488a2.288,2.288,0,0,0-1.031-1.816,3.632,3.632,0,0,0-2.357-.675l-4.243.143Zm-86.661,2.933a3.537,3.537,0,0,0-1.913.622l-.874.579a2.609,2.609,0,0,0-.811.9,2.053,2.053,0,0,0-.312.9v3.843a1.822,1.822,0,0,0,.283.913,2.213,2.213,0,0,0,.739.753l.937.632a3.275,3.275,0,0,0,.884.365,4.064,4.064,0,0,0,1.164.141l5.553-.169a1.171,1.171,0,0,0,.73-.273.758.758,0,0,0,.329-.6.7.7,0,0,0-.314-.584,1.13,1.13,0,0,0-.744-.227l-5.413.168a1.778,1.778,0,0,1-.952-.278l-.61-.392a.831.831,0,0,1-.461-.716v-.488l7.438-.236a1.192,1.192,0,0,0,.744-.274.77.77,0,0,0,.314-.6v-2.035a2.028,2.028,0,0,0-.855-1.795l-.792-.574a3.359,3.359,0,0,0-2.108-.668l-2.952.1Zm50.853-1.719a3.149,3.149,0,0,0-2.007.74,2.088,2.088,0,0,0-.806,1.61,1.75,1.75,0,0,0,.453,1.127,2.691,2.691,0,0,0,1.294.81l5.852,1.88c.485.155.73.424.73.812a.925.925,0,0,1-.325.684,1.211,1.211,0,0,1-.8.311l-4.062.126a2.176,2.176,0,0,1-1.375-.325,1.414,1.414,0,0,0-.881-.34,1.3,1.3,0,0,0-.826.292.779.779,0,0,0-.313.6c0,.339.323.675.97,1.014a4.274,4.274,0,0,0,2.126.475l4.411-.134a3.683,3.683,0,0,0,2.251-.833,2.362,2.362,0,0,0,1-1.9,2.186,2.186,0,0,0-.571-1.481,3.025,3.025,0,0,0-1.446-.942l-5.8-1.828c-.32-.105-.483-.269-.483-.493,0-.319.244-.489.727-.505l4.931-.164a1.329,1.329,0,0,1,.9.339,1.388,1.388,0,0,0,.951.337,1.244,1.244,0,0,0,.726-.259.741.741,0,0,0,.34-.616c0-.347-.3-.689-.9-1.029a3.776,3.776,0,0,0-2.066-.479l-5,.169Zm-50.7,3.409,2.639-.088a1.567,1.567,0,0,1,.853.284l.617.411a.789.789,0,0,1,.362.708v1.174l-6.385.206v-1.3a.773.773,0,0,1,.413-.663l.611-.428a1.6,1.6,0,0,1,.89-.3Zm31.3-.623a1.238,1.238,0,0,0-.767.278.77.77,0,0,0-.31.609v.746a.768.768,0,0,0,.31.608,1.166,1.166,0,0,0,.767.228l8.694-.28a1.191,1.191,0,0,0,.757-.278.814.814,0,0,0,.322-.631v-.749a.682.682,0,0,0-.332-.6,1.209,1.209,0,0,0-.747-.221l-8.694.288Zm110.171-2.11a1.362,1.362,0,0,0-.826.289.8.8,0,0,0-.328.628.784.784,0,0,0,.328.631,1.214,1.214,0,0,0,.8.237l3.531-.113v3.7a.746.746,0,0,0,.345.62,1.478,1.478,0,0,0,1.658-.051.8.8,0,0,0,.346-.641V247.9a.735.735,0,0,0-.356-.619,1.226,1.226,0,0,0-.8-.245l-4.694.153Zm-54.982,3.58,4.4-.141a1.218,1.218,0,0,1,.789.225.761.761,0,0,1,.333.608l.067.732-2.437,1.179-3.153.1a1.206,1.206,0,0,1-.781-.233.731.731,0,0,1-.332-.6v-.966a.766.766,0,0,1,.316-.616,1.3,1.3,0,0,1,.8-.287h0ZM151.934,271.623a1.1,1.1,0,0,0-.708.261.739.739,0,0,0-.281.583l-.022.717a.684.684,0,0,0,.268.557,1.052,1.052,0,0,0,.722.235l1.063-.027a1.063,1.063,0,0,0,.7-.261.785.785,0,0,0,.3-.6v-.7a.69.69,0,0,0-.3-.568,1.016,1.016,0,0,0-.7-.225l-1.04.027Zm114.533-2.3a2.329,2.329,0,0,0-1.456.524,1.482,1.482,0,0,0-.614,1.17v10.153a1.414,1.414,0,0,0,.6,1.149,2.257,2.257,0,0,0,1.47.446l6.7-.144a2.337,2.337,0,0,0,1.464-.511,1.484,1.484,0,0,0,.619-1.179V270.74a1.4,1.4,0,0,0-.619-1.142,2.174,2.174,0,0,0-1.439-.45Zm17.461-.457a2.364,2.364,0,0,0-1.473.527,1.488,1.488,0,0,0-.622,1.177v10.214a1.42,1.42,0,0,0,.607,1.156,2.293,2.293,0,0,0,1.488.449l6.777-.146a2.373,2.373,0,0,0,1.481-.514,1.491,1.491,0,0,0,.626-1.187V270.29a1.406,1.406,0,0,0-.626-1.149,2.208,2.208,0,0,0-1.456-.452l-6.8.178ZM173.094,271.79a1.06,1.06,0,0,0-.7.263.735.735,0,0,0-.286.583v3.883l-.7-.461a3.573,3.573,0,0,0-2.153-.631l-1.447.036a3.564,3.564,0,0,0-2.074.679l-.825.594a2.308,2.308,0,0,0-.669.808,2.223,2.223,0,0,0-.284,1.08v3.335a2.283,2.283,0,0,0,.252.981,2.112,2.112,0,0,0,.545.738l.834.556a3.494,3.494,0,0,0,2.055.68l1.709-.037a4.624,4.624,0,0,0,2.751-1.244v.361a.726.726,0,0,0,.286.581,1.079,1.079,0,0,0,.719.222,1.146,1.146,0,0,0,.71-.253.754.754,0,0,0,.3-.594V272.584a.68.68,0,0,0-.314-.568,1.076,1.076,0,0,0-.719-.226Zm75.157-1.966a1.213,1.213,0,0,0-.758.271.748.748,0,0,0-.3.6.735.735,0,0,0,.3.595,1.188,1.188,0,0,0,.758.22l3.215-.082V281.4l-3.264.072a1.231,1.231,0,0,0-.758.256.745.745,0,0,0-.306.59.774.774,0,0,0,.306.608,1.159,1.159,0,0,0,.758.235l8.59-.185a1.2,1.2,0,0,0,.753-.26.77.77,0,0,0,.318-.612v-4.373a.709.709,0,0,0-.318-.589,1.122,1.122,0,0,0-.753-.234,1.21,1.21,0,0,0-.762.27.772.772,0,0,0-.3.6V281.3l-2.132.047V269.684l-5.344.14Zm52.331-1.369a1.228,1.228,0,0,0-.775.284.781.781,0,0,0-.327.622v1.5a.745.745,0,0,0,.317.6,1.142,1.142,0,0,0,.76.237l2.278-.057a1.25,1.25,0,0,0,.777-.275.812.812,0,0,0,.328-.635v-1.485a.731.731,0,0,0-.343-.605,1.183,1.183,0,0,0-.787-.243l-2.228.058Zm-102.857,2.71a1.173,1.173,0,0,0-.731.255.733.733,0,0,0-.291.581v11.457a.73.73,0,0,0,.291.586,1.225,1.225,0,0,0,1.454-.032.758.758,0,0,0,.305-.6v-5.271l2.918-1.613a1.9,1.9,0,0,1,.861-.268l1.149-.028a1.112,1.112,0,0,1,.735.229.747.747,0,0,1,.32.574l.254,6.24a.788.788,0,0,0,.306.579,1.074,1.074,0,0,0,.726.232,1.19,1.19,0,0,0,.736-.256.724.724,0,0,0,.293-.6l-.255-6.221a2.234,2.234,0,0,0-.948-1.74,3.275,3.275,0,0,0-2.168-.681l-1.271.032a4.62,4.62,0,0,0-2.008.624l-1.648.91v-4.189a.69.69,0,0,0-.3-.573,1.061,1.061,0,0,0-.722-.228Zm-14.372,1.082a1.145,1.145,0,0,0-.729.264.743.743,0,0,0-.288.589v2.02l-1.062.026a1.131,1.131,0,0,0-.723.263.742.742,0,0,0-.287.588.708.708,0,0,0,.287.582,1.115,1.115,0,0,0,.723.216l1.039-.025v5.354a2.119,2.119,0,0,0,.9,1.725,3.285,3.285,0,0,0,2.16.682l2.033-.044a3.338,3.338,0,0,0,2.208-.786,2.106,2.106,0,0,0,.872-1.515.723.723,0,0,0-.289-.6,1.05,1.05,0,0,0-.732-.23,1.04,1.04,0,0,0-1.03.742,1.069,1.069,0,0,1-1.076.731l-1.987.044a1.131,1.131,0,0,1-.734-.229.708.708,0,0,1-.3-.571v-5.358l4.113-.1a1.144,1.144,0,0,0,.713-.252.759.759,0,0,0,.3-.6.714.714,0,0,0-.3-.575,1.069,1.069,0,0,0-.713-.228l-4.09.1V273.05a.706.706,0,0,0-.316-.574,1.042,1.042,0,0,0-.7-.228ZM320.711,269.4a1.267,1.267,0,0,0-.781.277.78.78,0,0,0-.332.618v1.481a.748.748,0,0,0,.316.61,1.27,1.27,0,0,0,.8.23l2.258-.056a1.283,1.283,0,0,0,.788-.269.785.785,0,0,0,.332-.627V270.18a.719.719,0,0,0-.332-.6,1.19,1.19,0,0,0-.788-.238l-2.258.058Zm-11.224.332a1.108,1.108,0,0,0-.765.276l-8.926,9.1a.915.915,0,0,0-.287.632.714.714,0,0,0,.352.594,1.372,1.372,0,0,0,.8.23,1.035,1.035,0,0,0,.72-.272l8.94-9.086v0a.951.951,0,0,0,.3-.663.688.688,0,0,0-.345-.6,1.3,1.3,0,0,0-.791-.217h0Zm-42.942,1.315,6.563-.168V280.92l-6.563.145v-10.02Zm17.462-.447,6.648-.17v10.1l-6.647.147V270.6ZM217.532,272.8a1.188,1.188,0,0,0-.742.267.767.767,0,0,0-.295.6v1.441a.728.728,0,0,0,.285.589,1.1,1.1,0,0,0,.727.219l2.132-.052a1.128,1.128,0,0,0,.715-.266.748.748,0,0,0,.324-.593v-1.443a.743.743,0,0,0-.31-.562,1.092,1.092,0,0,0-.757-.249l-2.075.053h-.005Zm-67.581,3.105a1.075,1.075,0,0,0-.707.271.76.76,0,0,0-.281.589.709.709,0,0,0,.281.564,1.054,1.054,0,0,0,.707.225l2.005-.049V283.6l-2.028.045a1.1,1.1,0,0,0-.707.258.746.746,0,0,0-.281.577.723.723,0,0,0,.281.576,1.086,1.086,0,0,0,.707.22l6.051-.13a1.116,1.116,0,0,0,.7-.251.751.751,0,0,0,.3-.59.676.676,0,0,0-.305-.566,1.075,1.075,0,0,0-.715-.227l-1.984.044v-6.911a.713.713,0,0,0-.3-.576,1,1,0,0,0-.7-.237l-3.022.075Zm-17.112.445a1.109,1.109,0,0,0-.712.27.69.69,0,0,0-.291.567l.219,4.971,1.025,2.948a.7.7,0,0,0,.34.379,1.165,1.165,0,0,0,.614.15l1.027-.022a1.094,1.094,0,0,0,.866-.494L137,283.595l1.074,1.5a.977.977,0,0,0,.868.435l1.053-.023a.907.907,0,0,0,.914-.611l1.054-2.9.212-5.067a.662.662,0,0,0-.284-.566,1.045,1.045,0,0,0-.7-.224,1.061,1.061,0,0,0-.68.259.838.838,0,0,0-.3.58L140,281.728l-.68,1.871-1.308-1.825V279.83a.683.683,0,0,0-.292-.562,1.032,1.032,0,0,0-.692-.225,1.1,1.1,0,0,0-.709.258.719.719,0,0,0-.292.575v1.883l-1.368,1.924-.641-1.8-.22-4.741a.707.707,0,0,0-.3-.571.965.965,0,0,0-.649-.217h0Zm34.955.771,1.4-.034a1.363,1.363,0,0,1,.86.223l1.643,1.1a.963.963,0,0,1,.419.87v1.783a.864.864,0,0,1-.4.712l-1.592,1.111a1.458,1.458,0,0,1-.763.321l-1.64.036a1.086,1.086,0,0,1-.656-.211l-.656-.443a.745.745,0,0,1-.394-.607v-3.476a.762.762,0,0,1,.335-.631l.647-.477a1.34,1.34,0,0,1,.8-.282Zm152.866-1.768a1.28,1.28,0,0,0-.8.276.754.754,0,0,0,0,1.235,1.164,1.164,0,0,0,.771.24l3.4-.078v3.628a.745.745,0,0,0,.333.611,1.4,1.4,0,0,0,1.6-.034.788.788,0,0,0,.338-.626v-4.5H326.3a.732.732,0,0,0-.343-.611,1.175,1.175,0,0,0-.773-.248l-4.519.107Zm-103.129,3.212.005,0a1.214,1.214,0,0,0-.746.254.751.751,0,0,0-.295.6v1.441a.743.743,0,0,0,.285.582,1.071,1.071,0,0,0,.727.232l2.132-.048a1.15,1.15,0,0,0,.729-.265.794.794,0,0,0,.31-.615v-1.424a.7.7,0,0,0-.324-.582,1.128,1.128,0,0,0-.743-.231l-2.08.049Zm89.718.11a1.26,1.26,0,0,0-.789.262.767.767,0,0,0-.314.622v1.505a.74.74,0,0,0,.3.608,1.209,1.209,0,0,0,.779.232l2.263-.049a1.258,1.258,0,0,0,.78-.265.779.779,0,0,0,.33-.623v-1.508a.724.724,0,0,0-.33-.608,1.21,1.21,0,0,0-.781-.227l-2.238.051ZM71.293,298.6a1.014,1.014,0,0,0-.668.247.741.741,0,0,0-.27.563.719.719,0,0,0,.27.561,1.007,1.007,0,0,0,.668.214l2.854-.048v3.115a1.832,1.832,0,0,0,.747,1.547,1.99,1.99,0,0,0-.747,1.6v3.1l-2.854.038a1.016,1.016,0,0,0-.668.244.721.721,0,0,0,0,1.124,1.011,1.011,0,0,0,.668.216l2.854-.036a1.956,1.956,0,0,0,1.3-.5,1.429,1.429,0,0,0,.567-1.1v-3.06a.76.76,0,0,1,.279-.582.99.99,0,0,1,.683-.264l1.88-.028a.976.976,0,0,0,.659-.246.743.743,0,0,0,.28-.583.68.68,0,0,0-.28-.553.947.947,0,0,0-.659-.226l-1.88.029a1.013,1.013,0,0,1-.683-.237.76.76,0,0,1-.279-.581v-3.052a1.4,1.4,0,0,0-.558-1.1,1.913,1.913,0,0,0-1.314-.461l-2.854.049Zm77.574,48.343a1.046,1.046,0,0,0-.707.242.71.71,0,0,0-.281.57.741.741,0,0,0,.281.582,1.073,1.073,0,0,0,.707.232l7.085.009v3.98l-6.024-.015a2.126,2.126,0,0,0-1.4.481,1.471,1.471,0,0,0-.58,1.162v5.628l9.024.047v0a1.1,1.1,0,0,0,.7-.228.729.729,0,0,0,.3-.582.708.708,0,0,0-.3-.574,1.08,1.08,0,0,0-.7-.247l-7.044-.032v-4l6.024.019a2.2,2.2,0,0,0,1.426-.471,1.473,1.473,0,0,0,.593-1.177v-3.983a1.426,1.426,0,0,0-.593-1.146,2.18,2.18,0,0,0-1.426-.487l-7.084,0Zm37.553.021a2.165,2.165,0,0,0-1.428.5,1.432,1.432,0,0,0-.6,1.129v3.174a.787.787,0,0,1-.311.619,1.084,1.084,0,0,1-.724.263l-2.027,0a1.11,1.11,0,0,0-.723.247.718.718,0,0,0-.292.577.736.736,0,0,0,.292.59,1.139,1.139,0,0,0,.723.236l2.027.006a1.07,1.07,0,0,1,.724.278.781.781,0,0,1,.311.609v3.166a1.488,1.488,0,0,0,.595,1.152,2.189,2.189,0,0,0,1.437.51l3.1.015a1.089,1.089,0,0,0,.714-.242.73.73,0,0,0,.3-.582.714.714,0,0,0-.3-.581,1.07,1.07,0,0,0-.714-.249l-3.1-.015v-3.225a1.956,1.956,0,0,0-.823-1.655,1.977,1.977,0,0,0,.823-1.65v-3.218l3.1.006a1.094,1.094,0,0,0,.714-.238.738.738,0,0,0,.3-.59.711.711,0,0,0-.3-.58,1.064,1.064,0,0,0-.713-.246l-3.1,0Zm-99.938,3.01a1.033,1.033,0,0,0-.688.236.707.707,0,0,0-.281.557v11.362a.73.73,0,0,0,.281.578,1.068,1.068,0,0,0,.688.241.961.961,0,0,0,.663-.233.72.72,0,0,0,.282-.575v-3.532l.737.62a2.816,2.816,0,0,0,1.87.656l.417,0a3.1,3.1,0,0,0,1.947-.578l1.549-1.115a2.381,2.381,0,0,0,1.124-1.985v-2.492a2.314,2.314,0,0,0-1.045-1.934l-1.584-1.155A3.045,3.045,0,0,0,90.588,350h-.443a4.031,4.031,0,0,0-2.719,1.283v-.511a.711.711,0,0,0-.282-.559,1,1,0,0,0-.663-.238Zm30.873.424a1.019,1.019,0,0,0-.691.249.734.734,0,0,0-.274.575v7.639a.724.724,0,0,0,.288.569,1.083,1.083,0,0,0,1.359.007.717.717,0,0,0,.288-.567v-5.152l2.639-1.425a1.987,1.987,0,0,1,.95-.275l.947,0q1.03,0,1.063.849l.289,6.029a.747.747,0,0,0,.3.6,1.116,1.116,0,0,0,.672.218,1.047,1.047,0,0,0,.695-.237.685.685,0,0,0,.276-.568l-.267-6.129A2.233,2.233,0,0,0,125,351.1a3.1,3.1,0,0,0-2-.688h-.9a4.209,4.209,0,0,0-2.007.465l-1.765.89v-.535a.727.727,0,0,0-.288-.576,1.015,1.015,0,0,0-.682-.252Zm-13.62-.007a1.028,1.028,0,0,0-.684.237.709.709,0,0,0,.013,1.127,1.011,1.011,0,0,0,.671.24l3.644.009a.988.988,0,0,1,.673.241.7.7,0,0,1,.286.563l.022,1.14a5.028,5.028,0,0,0-.893-.117l-3.754-.011a3.081,3.081,0,0,0-2.05.709,2.145,2.145,0,0,0-.845,1.7v.935a2.175,2.175,0,0,0,.845,1.72,3.1,3.1,0,0,0,2.05.719l3.239.017,1.626-.8a.729.729,0,0,0,.286.575,1.079,1.079,0,0,0,.7.232,1.052,1.052,0,0,0,.678-.225.721.721,0,0,0,.286-.573l-.242-6.021a2.245,2.245,0,0,0-.881-1.713,3.056,3.056,0,0,0-2.024-.7l-3.644,0Zm31.981.058a3.125,3.125,0,0,0-1.785.539l-.815.529a2.349,2.349,0,0,0-.757.837,1.982,1.982,0,0,0-.291.86v3.712a1.856,1.856,0,0,0,.269.887,2.221,2.221,0,0,0,.685.756l.874.642a3.176,3.176,0,0,0,.829.379,3.744,3.744,0,0,0,1.086.18l5.179.027a1.035,1.035,0,0,0,.68-.238.7.7,0,0,0,.009-1.142,1.05,1.05,0,0,0-.689-.245l-5.054-.023a1.654,1.654,0,0,1-.884-.3l-.574-.4a.841.841,0,0,1-.43-.707v-.475l6.942.027a1.044,1.044,0,0,0,.689-.239.716.716,0,0,0,.293-.568v-1.965a2.063,2.063,0,0,0-.8-1.766l-.734-.582a3.163,3.163,0,0,0-1.966-.718l-2.758,0Zm-45.683,1.163h.556a.97.97,0,0,1,.586.2l1.6,1.155a.834.834,0,0,1,.418.678v2.578a.764.764,0,0,1-.374.671l-1.483,1.086a1.258,1.258,0,0,1-.743.292l-.486,0a1.5,1.5,0,0,1-.894-.431l-1.362-1.156a.978.978,0,0,1-.42-.721v-2.04a.91.91,0,0,1,.373-.7l1.409-1.172a1.454,1.454,0,0,1,.825-.436Zm45.823.479,2.466.006a1.479,1.479,0,0,1,.8.3l.571.418a.806.806,0,0,1,.342.7v1.131l-5.96-.019v-1.254a.718.718,0,0,1,.386-.626l.574-.4a1.4,1.4,0,0,1,.825-.258Zm-61.777,2.353a1.018,1.018,0,0,0-.682.234.694.694,0,0,0-.279.558v1.368a.724.724,0,0,0,.27.556,1.008,1.008,0,0,0,.669.243l1.919.008a.954.954,0,0,0,.657-.237.738.738,0,0,0,.279-.573v-1.352a.7.7,0,0,0-.279-.561.986.986,0,0,0-.657-.238l-1.9-.006Zm29.636,1.016,3.78.013a1.016,1.016,0,0,1,.673.234.753.753,0,0,1,.286.575l.057.677-2.093,1.016-2.7-.013a1.027,1.027,0,0,1-.675-.242.723.723,0,0,1-.285-.566v-.9a.712.712,0,0,1,.276-.564,1.025,1.025,0,0,1,.684-.236h0Zm97.114,16.082a1.121,1.121,0,0,0-.733.24.712.712,0,0,0-.291.579l-.028.733a.726.726,0,0,0,.282.576,1.133,1.133,0,0,0,.747.262l1.1.011a1.071,1.071,0,0,0,.72-.24.756.756,0,0,0,.306-.6v-.715a.72.72,0,0,0-.306-.585,1.086,1.086,0,0,0-.72-.254l-1.077-.011Zm173.658,2.35a2.5,2.5,0,0,0-1.571.489,1.454,1.454,0,0,0-.661,1.187V386.1a1.517,1.517,0,0,0,.65,1.214,2.561,2.561,0,0,0,1.582.514l7.2.1a2.51,2.51,0,0,0,1.58-.471,1.463,1.463,0,0,0,.666-1.2V375.687a1.491,1.491,0,0,0-.666-1.2,2.482,2.482,0,0,0-1.553-.52l-7.225-.068Zm-125.147-1.162a1.175,1.175,0,0,0-.758.244.731.731,0,0,0-.306.592.771.771,0,0,0,.306.606,1.219,1.219,0,0,0,.758.247l2.151.022v9.968l-2.126-.029a1.166,1.166,0,0,0-.758.241.74.74,0,0,0-.3.591.792.792,0,0,0,.3.615,1.2,1.2,0,0,0,.758.262l6.437.091a1.132,1.132,0,0,0,.752-.241.734.734,0,0,0,0-1.209,1.192,1.192,0,0,0-.752-.262l-2.157-.029v-10.82a.754.754,0,0,0-.317-.6,1.169,1.169,0,0,0-.746-.259l-3.242-.031Zm39.336.372a4.6,4.6,0,0,0-2.865.838,2.606,2.606,0,0,0-1.141,2.168v.661l-1.14-.013a1.149,1.149,0,0,0-.8.257.76.76,0,0,0-.289.583.773.773,0,0,0,.313.605,1.229,1.229,0,0,0,.776.263l1.11.013v7.254a.768.768,0,0,0,.324.615,1.293,1.293,0,0,0,.792.254,1.226,1.226,0,0,0,.768-.232.745.745,0,0,0,.324-.606v-7.259l2.207.025a1.183,1.183,0,0,0,.765-.246.736.736,0,0,0,.325-.6.766.766,0,0,0-.325-.615,1.185,1.185,0,0,0-.765-.255l-2.182-.023v-.662a1.107,1.107,0,0,1,.5-.942,2.177,2.177,0,0,1,1.3-.355l2.565.026a1.2,1.2,0,0,0,.766-.247.737.737,0,0,0,.326-.6.777.777,0,0,0-.326-.627,1.177,1.177,0,0,0-.766-.262Zm67.663.639v7.788l6.923.083v4.3l-5.307-.072v0a1.338,1.338,0,0,1-.56-.136l-1.506-.509a2.46,2.46,0,0,0-.789-.167,1.137,1.137,0,0,0-.763.25.754.754,0,0,0-.313.613.859.859,0,0,0,.695.843l1.725.573a4.936,4.936,0,0,0,1.512.282l5.307.075a2.549,2.549,0,0,0,1.613-.488,1.513,1.513,0,0,0,.684-1.237v-4.306a1.547,1.547,0,0,0-.684-1.242,2.607,2.607,0,0,0-1.613-.541l-4.61-.053v-4.288l5.756.058a1.29,1.29,0,0,0,.81-.241.762.762,0,0,0,.342-.624.775.775,0,0,0-.342-.622,1.308,1.308,0,0,0-.81-.269Zm-53.478.251a1.234,1.234,0,0,0-.787.248.735.735,0,0,0-.312.6v2.109l-1.154-.013a1.22,1.22,0,0,0-.785.247.727.727,0,0,0-.312.6.757.757,0,0,0,.312.617,1.285,1.285,0,0,0,.785.257l1.128.013v5.577a2.277,2.277,0,0,0,.983,1.836,3.772,3.772,0,0,0,2.347.789l2.209.031a3.619,3.619,0,0,0,2.4-.736,2.085,2.085,0,0,0,.948-1.546.778.778,0,0,0-.319-.632,1.2,1.2,0,0,0-.791-.267,1.083,1.083,0,0,0-1.119.735,1.114,1.114,0,0,1-1.169.722l-2.158-.029a1.3,1.3,0,0,1-.8-.267.759.759,0,0,1-.328-.607V378.7l4.469.05a1.239,1.239,0,0,0,.775-.24.751.751,0,0,0,.329-.612.759.759,0,0,0-.329-.607,1.233,1.233,0,0,0-.775-.265l-4.443-.048v-2.111a.758.758,0,0,0-.343-.61,1.212,1.212,0,0,0-.762-.263Zm130.016,2a1.376,1.376,0,0,0-.847.259.769.769,0,0,0-.357.629v1.537a.805.805,0,0,0,.346.645,1.447,1.447,0,0,0,.858.264l2.432.027a1.352,1.352,0,0,0,.843-.246.774.774,0,0,0,.358-.638v-1.539a.77.77,0,0,0-.358-.637,1.34,1.34,0,0,0-.843-.276L432.876,376Zm-58.311-.318,7.066.071v10.417l-7.066-.1Zm-52.685,0a1.256,1.256,0,0,0-.8.249.748.748,0,0,0-.317.6v1.493a.77.77,0,0,0,.3.621,1.258,1.258,0,0,0,.786.258l2.286.026a1.209,1.209,0,0,0,.773-.249.743.743,0,0,0,.348-.607v-1.5a.787.787,0,0,0-.333-.59,1.238,1.238,0,0,0-.814-.286Zm70.391,1.814a1.355,1.355,0,0,0-.851.255.761.761,0,0,0-.348.621V391a.8.8,0,0,0,.348.65,1.428,1.428,0,0,0,.851.277,1.267,1.267,0,0,0,.819-.251.773.773,0,0,0,.348-.64v-3.924l.906.7a3.776,3.776,0,0,0,2.318.751l.516.006a4.12,4.12,0,0,0,2.408-.625l1.917-1.218a2.565,2.565,0,0,0,1.385-2.2v-2.772a2.538,2.538,0,0,0-1.288-2.164l-1.96-1.3a4.1,4.1,0,0,0-2.3-.724l-.543-.006a5.208,5.208,0,0,0-3.364,1.4v-.568a.781.781,0,0,0-.348-.629,1.327,1.327,0,0,0-.819-.272ZM135.6,375.156a2.863,2.863,0,0,0-1.82.615.9.9,0,0,0-.954-.626,1.053,1.053,0,0,0-.7.234.7.7,0,0,0-.277.564v7.687h-.005a.74.74,0,0,0,.3.575,1.11,1.11,0,0,0,.707.251.986.986,0,0,0,.676-.232.722.722,0,0,0,.278-.568v-5.77l1.412-.968a.645.645,0,0,1,.386-.122c.288,0,.431.144.431.421v6.451a.741.741,0,0,0,.292.584,1.1,1.1,0,0,0,.692.244,1.025,1.025,0,0,0,.687-.224.685.685,0,0,0,.292-.557V377.78l1.169-.8a.712.712,0,0,1,.41-.14c.242,0,.371.176.387.525l.234,6.378a.769.769,0,0,0,.306.573,1.085,1.085,0,0,0,.7.255,1.034,1.034,0,0,0,.689-.236.707.707,0,0,0,.293-.565l-.279-6.644a1.824,1.824,0,0,0-.73-1.374,2.45,2.45,0,0,0-1.58-.556,2.986,2.986,0,0,0-2.055.807,2.537,2.537,0,0,0-1.94-.849h0Zm29.438.315a1.059,1.059,0,0,0-.715.244.734.734,0,0,0-.284.582v7.777a.754.754,0,0,0,.284.589,1.133,1.133,0,0,0,.715.243,1.094,1.094,0,0,0,.706-.223.723.723,0,0,0,.3-.581v-4.58l2.851-1.987a1.654,1.654,0,0,1,.933-.35l1.3.015a1.065,1.065,0,0,1,.709.253.716.716,0,0,1,.3.579v.463a.746.746,0,0,0,.286.586,1.142,1.142,0,0,0,.719.246,1.045,1.045,0,0,0,.71-.236.738.738,0,0,0,.3-.6v-.441a2.214,2.214,0,0,0-.89-1.753,3.3,3.3,0,0,0-2.133-.745l-1.467-.015a3.46,3.46,0,0,0-1.985.681l-1.633,1.127v-1.029a.748.748,0,0,0-.3-.6,1.063,1.063,0,0,0-.706-.251Zm19.073.2a3.519,3.519,0,0,0-2.1.6l-.835.572a2.078,2.078,0,0,0-.649.766,2.363,2.363,0,0,0-.264,1.095v2.728a2.033,2.033,0,0,0,.264.966,2.213,2.213,0,0,0,.649.756l.76.558a3.737,3.737,0,0,0,2.172.71l1.562.021a4.38,4.38,0,0,0,2.783-1.135v2.52a.638.638,0,0,1-.349.566l-.694.47a1.265,1.265,0,0,1-.749.235l-4.4-.065a1.125,1.125,0,0,0-.724.227.7.7,0,0,0-.287.573.74.74,0,0,0,.287.593,1.159,1.159,0,0,0,.723.249l4.4.067a3.8,3.8,0,0,0,1.066-.15,2.9,2.9,0,0,0,.894-.38l.825-.57a2.143,2.143,0,0,0,1.045-1.787v-9.278a.713.713,0,0,0-.317-.583,1.129,1.129,0,0,0-.728-.254,1.089,1.089,0,0,0-.713.238.718.718,0,0,0-.3.576l.025.326-.7-.488a3.735,3.735,0,0,0-2.178-.712l-1.465-.015Zm14.666.157a1.092,1.092,0,0,0-.732.247.74.74,0,0,0-.291.589.752.752,0,0,0,.291.588,1.136,1.136,0,0,0,.732.255l2.076.024v6.195l-2.1-.028a1.113,1.113,0,0,0-.732.237.737.737,0,0,0-.3.581.766.766,0,0,0,.3.6,1.17,1.17,0,0,0,.732.246l6.26.088a1.135,1.135,0,0,0,.726-.226.712.712,0,0,0-.014-1.18,1.146,1.146,0,0,0-.736-.257l-2.058-.028v-7.032a.75.75,0,0,0-.306-.6,1.063,1.063,0,0,0-.72-.263l-3.129-.033ZM214.4,376a1.11,1.11,0,0,0-.74.248.747.747,0,0,0-.3.592v7.913a.742.742,0,0,0,.308.588,1.146,1.146,0,0,0,.731.258,1.1,1.1,0,0,0,.726-.238.721.721,0,0,0,.309-.58v-5.337L218.264,378a2.169,2.169,0,0,1,1.014-.279l1.014.011c.736.009,1.119.305,1.144.89l.31,6.248a.767.767,0,0,0,.32.621,1.232,1.232,0,0,0,.721.228,1.137,1.137,0,0,0,.745-.238.692.692,0,0,0,.3-.582l-.286-6.352a2.313,2.313,0,0,0-.955-1.754,3.413,3.413,0,0,0-2.146-.728l-.967-.011a4.634,4.634,0,0,0-2.156.462l-1.891.9v-.558a.753.753,0,0,0-.309-.6A1.1,1.1,0,0,0,214.4,376Zm-63.452-.66a1.072,1.072,0,0,0-.707.235.707.707,0,0,0-.286.568.737.737,0,0,0,.295.578,1.081,1.081,0,0,0,.7.25l3.766.043a1.048,1.048,0,0,1,.7.251.713.713,0,0,1,.3.576l.022,1.16a5.371,5.371,0,0,0-.924-.131l-3.884-.046a3.2,3.2,0,0,0-2.126.7,2.149,2.149,0,0,0-.869,1.728v.951a2.217,2.217,0,0,0,.869,1.758,3.28,3.28,0,0,0,2.126.746l3.352.047,1.679-.792a.744.744,0,0,0,.3.588,1.146,1.146,0,0,0,.724.242,1.083,1.083,0,0,0,.7-.222.721.721,0,0,0,.3-.58l-.251-6.127a2.3,2.3,0,0,0-.911-1.75,3.235,3.235,0,0,0-2.1-.733l-3.767-.04ZM268.426,376.6a3.518,3.518,0,0,0-1.959.547l-.9.546a2.473,2.473,0,0,0-.831.869,1.982,1.982,0,0,0-.319.894v3.889a1.911,1.911,0,0,0,.295.937,2.407,2.407,0,0,0,.752.8l.959.678a3.582,3.582,0,0,0,.91.409,4.308,4.308,0,0,0,1.192.2l5.687.08a1.158,1.158,0,0,0,.747-.243.72.72,0,0,0,.332-.592.736.736,0,0,0-.322-.6,1.2,1.2,0,0,0-.757-.264l-5.549-.075a1.892,1.892,0,0,1-.97-.328l-.63-.425a.886.886,0,0,1-.472-.745v-.494l7.622.1a1.167,1.167,0,0,0,.757-.244.732.732,0,0,0,.322-.593v-2.063a2.134,2.134,0,0,0-.871-1.855l-.811-.617a3.606,3.606,0,0,0-2.159-.771l-3.028-.033ZM411.7,378.133a1.263,1.263,0,0,0-.857.277.8.8,0,0,0-.325.621.7.7,0,0,0,.266.534l3.924,3.562-4.249,3.78a.681.681,0,0,0-.222.54.8.8,0,0,0,.336.649,1.341,1.341,0,0,0,.846.277,1.285,1.285,0,0,0,.944-.358l3.884-3.421,3.856,3.529a1.438,1.438,0,0,0,.966.378,1.324,1.324,0,0,0,.824-.255.815.815,0,0,0,.366-.679.636.636,0,0,0-.24-.5l-4.21-3.874,4.013-3.6a.641.641,0,0,0,.153-.5.7.7,0,0,0-.366-.61,1.473,1.473,0,0,0-.824-.255,1.2,1.2,0,0,0-.851.3l-3.682,3.227-3.591-3.285a1.4,1.4,0,0,0-.96-.337h0Zm-15.041,1.224.688.009a1.291,1.291,0,0,1,.726.228l1.969,1.3a.931.931,0,0,1,.522.755v2.868a.831.831,0,0,1-.463.746l-1.834,1.191a1.664,1.664,0,0,1-.924.317l-.6-.009a1.967,1.967,0,0,1-1.106-.49l-1.684-1.3a1.086,1.086,0,0,1-.52-.81v-2.269a.969.969,0,0,1,.461-.774l1.743-1.291a1.848,1.848,0,0,1,1.02-.472Zm-212.525-2.03,1.362.015a1.428,1.428,0,0,1,.874.274l1.657,1.169a.87.87,0,0,1,.424.743v1.252a.765.765,0,0,1-.377.642l-1.606,1.091a1.445,1.445,0,0,1-.8.284l-1.654-.022a1.154,1.154,0,0,1-.664-.224l-.668-.492a.813.813,0,0,1-.394-.632v-2.749a.757.757,0,0,1,.362-.664l.627-.416a1.47,1.47,0,0,1,.859-.273Zm84.441.992,2.707.031a1.669,1.669,0,0,1,.874.321l.627.444a.847.847,0,0,1,.376.737v1.185l-6.544-.08v-1.314a.74.74,0,0,1,.423-.652l.63-.409A1.578,1.578,0,0,1,268.579,378.32Zm-37.343-.011a1.144,1.144,0,0,0-.749.241.715.715,0,0,0-.3.584v.737a.8.8,0,0,0,.3.614,1.173,1.173,0,0,0,.749.259l8.49.1a1.113,1.113,0,0,0,.744-.241.767.767,0,0,0,.314-.609v-.74a.716.716,0,0,0-.329-.605,1.209,1.209,0,0,0-.73-.247l-8.49-.1Zm201.58,3.866a1.376,1.376,0,0,0-.858.257.773.773,0,0,0-.341.629.824.824,0,0,0,.341.654,1.324,1.324,0,0,0,.83.277l3.667.046v3.77a.8.8,0,0,0,.358.647,1.482,1.482,0,0,0,.877.267,1.39,1.39,0,0,0,.844-.244.772.772,0,0,0,.359-.637V383.17a.793.793,0,0,0-.375-.647,1.342,1.342,0,0,0-.833-.29l-4.869-.058Zm-110.935-.522a1.282,1.282,0,0,0-.8.24.74.74,0,0,0-.316.614V384a.777.777,0,0,0,.3.61,1.229,1.229,0,0,0,.787.268l2.285.03a1.237,1.237,0,0,0,.788-.247.782.782,0,0,0,.333-.626v-1.472a.747.747,0,0,0-.348-.615,1.278,1.278,0,0,0-.8-.268l-2.234-.027ZM150.922,380.5l3.907.049a1.083,1.083,0,0,1,.7.241.769.769,0,0,1,.3.587l.059.693-2.165,1.011-2.8-.038a1.084,1.084,0,0,1-.7-.252.73.73,0,0,1-.295-.575V381.3a.705.705,0,0,1,.286-.567,1.065,1.065,0,0,1,.708-.234h0Zm1.012,15.465v0a1.064,1.064,0,0,0-.708.23.7.7,0,0,0-.281.566l-.022.72a.712.712,0,0,0,.268.565,1.1,1.1,0,0,0,.722.268l1.063.019a1.029,1.029,0,0,0,.7-.23.747.747,0,0,0,.3-.589v-.7a.725.725,0,0,0-.3-.581,1.06,1.06,0,0,0-.7-.256l-1.039-.019Zm114.534,2.8a2.234,2.234,0,0,0-1.455.455,1.408,1.408,0,0,0-.614,1.143v10.157a1.487,1.487,0,0,0,.6,1.176,2.341,2.341,0,0,0,1.47.508l6.7.154a2.247,2.247,0,0,0,1.464-.442,1.41,1.41,0,0,0,.619-1.152V400.568a1.473,1.473,0,0,0-.619-1.17,2.257,2.257,0,0,0-1.439-.51l-6.721-.123Zm17.461.32a2.271,2.271,0,0,0-1.473.458,1.414,1.414,0,0,0-.622,1.149V410.91a1.494,1.494,0,0,0,.607,1.183,2.379,2.379,0,0,0,1.488.511l6.777.156a2.283,2.283,0,0,0,1.481-.445,1.416,1.416,0,0,0,.626-1.159V400.9a1.48,1.48,0,0,0-.626-1.177,2.293,2.293,0,0,0-1.456-.513l-6.8-.125Zm-110.834-2.014a1.026,1.026,0,0,0-.7.232.7.7,0,0,0-.286.57v3.886l-.7-.5a3.707,3.707,0,0,0-2.153-.727l-1.447-.028a3.446,3.446,0,0,0-2.074.586l-.825.558a2.387,2.387,0,0,0-.953,1.845v3.335a2.354,2.354,0,0,0,.252.992,2.246,2.246,0,0,0,.545.763l.834.6a3.627,3.627,0,0,0,2.055.768l1.709.039a4.416,4.416,0,0,0,2.751-1.122v.365a.763.763,0,0,0,.286.593,1.118,1.118,0,0,0,.719.25,1.094,1.094,0,0,0,.71-.217.716.716,0,0,0,.3-.58V397.91a.717.717,0,0,0-.314-.582,1.117,1.117,0,0,0-.719-.258Zm75.109,1.378a1.156,1.156,0,0,0-.758.237.724.724,0,0,0-.306.589.779.779,0,0,0,.306.608,1.229,1.229,0,0,0,.758.254l7.6.144v3.273a.734.734,0,0,1-.317.6,1.178,1.178,0,0,1-.747.229l-4.308-.088a1.16,1.16,0,0,0-.759.236.716.716,0,0,0-.306.585.763.763,0,0,0,.306.609,1.236,1.236,0,0,0,.759.259l4.283.09a1.125,1.125,0,0,1,.747.275.768.768,0,0,1,.317.611v3.3l-7.5-.168a1.158,1.158,0,0,0-.758.234.716.716,0,0,0-.3.588.769.769,0,0,0,.3.605,1.237,1.237,0,0,0,.758.261l7.526.173a2.368,2.368,0,0,0,1.525-.461,1.452,1.452,0,0,0,.636-1.183v-3.307a2.33,2.33,0,0,0-.89-1.732,2.133,2.133,0,0,0,.866-1.777v-3.175a1.506,1.506,0,0,0-.621-1.2,2.375,2.375,0,0,0-1.515-.532l-7.6-.139Zm-50.477-.907a1.146,1.146,0,0,0-.732.222.7.7,0,0,0-.291.568v11.461a.767.767,0,0,0,.291.6,1.178,1.178,0,0,0,.731.252,1.093,1.093,0,0,0,.722-.219.722.722,0,0,0,.3-.585v-5.275l2.918-1.483a1.834,1.834,0,0,1,.861-.23l1.149.023a1.157,1.157,0,0,1,.735.262.8.8,0,0,1,.32.593l.254,6.251a.82.82,0,0,0,.307.589,1.115,1.115,0,0,0,.726.264,1.142,1.142,0,0,0,.736-.219.69.69,0,0,0,.293-.587l-.255-6.237a2.351,2.351,0,0,0-.948-1.782,3.4,3.4,0,0,0-2.168-.777l-1.271-.025a4.47,4.47,0,0,0-2.008.534l-1.648.837v-4.185a.733.733,0,0,0-.305-.59,1.1,1.1,0,0,0-.722-.26Zm-14.372.443a1.111,1.111,0,0,0-.729.232.708.708,0,0,0-.288.576v2.02l-1.062-.021a1.085,1.085,0,0,0-.723.231.706.706,0,0,0-.287.575.744.744,0,0,0,.287.594,1.158,1.158,0,0,0,.723.249l1.039.021v5.354a2.233,2.233,0,0,0,.9,1.769,3.407,3.407,0,0,0,2.16.775l2.033.047a3.208,3.208,0,0,0,2.209-.687,2,2,0,0,0,.872-1.476.759.759,0,0,0-.289-.608,1.092,1.092,0,0,0-.732-.262.987.987,0,0,0-1.03.7,1.014,1.014,0,0,1-1.076.683l-1.987-.044a1.177,1.177,0,0,1-.734-.262.744.744,0,0,1-.3-.585V402.5l4.113.083a1.1,1.1,0,0,0,.713-.22.722.722,0,0,0,.3-.584.75.75,0,0,0-.3-.589,1.114,1.114,0,0,0-.713-.26l-4.09-.08v-2.021a.743.743,0,0,0-.316-.588,1.084,1.084,0,0,0-.7-.259Zm155.479,3.61a1.23,1.23,0,0,0-.791.244.737.737,0,0,0-.336.6v1.494a.8.8,0,0,0,.325.628,1.32,1.32,0,0,0,.8.263l2.291.046a1.232,1.232,0,0,0,.792-.232.749.749,0,0,0,.337-.616v-1.5a.753.753,0,0,0-.337-.617,1.244,1.244,0,0,0-.792-.274l-2.291-.043Zm-72.287-1.11,6.563.124v10.043l-6.563-.147v-10.02Zm17.462.331,6.647.126v10.1l-6.647-.149V400.816Zm-66.476-.754a1.142,1.142,0,0,0-.742.234.731.731,0,0,0-.295.583v1.441a.765.765,0,0,0,.285.6,1.139,1.139,0,0,0,.727.252l2.132.043a1.08,1.08,0,0,0,.714-.234.71.71,0,0,0,.324-.579V400.96a.775.775,0,0,0-.31-.572,1.139,1.139,0,0,0-.757-.286l-2.075-.04h-.005Zm83.126,2.655a1.227,1.227,0,0,0-.8.24.73.73,0,0,0-.327.6v12.254a.79.79,0,0,0,.327.633,1.31,1.31,0,0,0,.8.275,1.175,1.175,0,0,0,.776-.237.749.749,0,0,0,.328-.618v-3.81l.852.685a3.508,3.508,0,0,0,2.18.747l.485.011a3.738,3.738,0,0,0,2.26-.583l1.8-1.17a2.472,2.472,0,0,0,1.308-2.114v-2.692a2.5,2.5,0,0,0-1.211-2.109l-1.843-1.275a3.8,3.8,0,0,0-2.159-.72l-.51-.011a4.768,4.768,0,0,0-3.163,1.331v-.559a.764.764,0,0,0-.328-.608,1.247,1.247,0,0,0-.776-.271v0Zm-150.707-2.558a1.031,1.031,0,0,0-.707.24.725.725,0,0,0-.281.577.744.744,0,0,0,.281.577,1.1,1.1,0,0,0,.707.257l2.005.04v6.092l-2.028-.045a1.054,1.054,0,0,0-.707.227.71.71,0,0,0-.281.564.758.758,0,0,0,.281.588,1.128,1.128,0,0,0,.707.251l6.051.139a1.068,1.068,0,0,0,.7-.22.706.706,0,0,0-.009-1.156,1.118,1.118,0,0,0-.715-.259l-1.984-.045v-6.911a.75.75,0,0,0-.3-.589,1.039,1.039,0,0,0-.7-.268l-3.022-.059Zm-8.763-.153a1.024,1.024,0,0,0-.68.228.8.8,0,0,0-.3.567l-.212,4.734-.68,1.844-1.309-1.887v-1.94a.724.724,0,0,0-.292-.578,1.075,1.075,0,0,0-.692-.256,1.051,1.051,0,0,0-.709.227.691.691,0,0,0-.292.566v1.883l-1.368,1.86-.641-1.826-.22-4.755a.744.744,0,0,0-.3-.585,1,1,0,0,0-.649-.243,1.057,1.057,0,0,0-.712.235.657.657,0,0,0-.291.554l.219,4.981,1.025,2.994a.751.751,0,0,0,.34.394,1.205,1.205,0,0,0,.614.177l1.027.024a1.036,1.036,0,0,0,.866-.452L137,407.269l1.074,1.551a1.028,1.028,0,0,0,.868.473l1.053.024a.859.859,0,0,0,.914-.57l1.054-2.849.212-5.057a.7.7,0,0,0-.284-.579,1.086,1.086,0,0,0-.7-.256h0Zm177.748,3.487a1.171,1.171,0,0,0-.811.265.775.775,0,0,0-.306.6.7.7,0,0,0,.255.52l3.689,3.486-3.995,3.631a.66.66,0,0,0-.214.517.807.807,0,0,0,.321.636,1.249,1.249,0,0,0,.8.275,1.173,1.173,0,0,0,.887-.34l3.652-3.286,3.625,3.452a1.328,1.328,0,0,0,.9.374,1.209,1.209,0,0,0,.775-.24.793.793,0,0,0,.349-.655.628.628,0,0,0-.226-.49l-3.962-3.794,3.772-3.45a.64.64,0,0,0,.149-.485.7.7,0,0,0-.349-.595,1.364,1.364,0,0,0-.775-.254,1.107,1.107,0,0,0-.8.286l-3.461,3.1-3.371-3.21a1.3,1.3,0,0,0-.9-.338h0Zm-14.143,1.066.641.013a1.206,1.206,0,0,1,.682.23l1.856,1.28a.906.906,0,0,1,.486.736V409.6a.8.8,0,0,1-.435.72l-1.72,1.141a1.518,1.518,0,0,1-.869.3l-.566-.013a1.824,1.824,0,0,1-1.035-.484l-1.589-1.275a1.055,1.055,0,0,1-.484-.786V407a.941.941,0,0,1,.434-.751l1.639-1.234a1.707,1.707,0,0,1,.959-.453Zm-137-2.39,1.4.028a1.405,1.405,0,0,1,.86.262l1.643,1.181a1.011,1.011,0,0,1,.419.889v1.779a.82.82,0,0,1-.4.695l-1.592,1.04a1.4,1.4,0,0,1-.763.287l-1.64-.037a1.119,1.119,0,0,1-.656-.24l-.656-.473a.786.786,0,0,1-.394-.625v-3.476a.725.725,0,0,1,.335-.616l.647-.445a1.3,1.3,0,0,1,.8-.25Zm170.986,5.415a1.259,1.259,0,0,0-.806.242.747.747,0,0,0-.325.6.83.83,0,0,0,.325.64,1.232,1.232,0,0,0,.78.276l3.445.074v3.651a.786.786,0,0,0,.337.63,1.359,1.359,0,0,0,.819.27,1.29,1.29,0,0,0,.8-.233.747.747,0,0,0,.337-.615V408.6l0,0a.775.775,0,0,0-.347-.63,1.241,1.241,0,0,0-.783-.284l-4.575-.1ZM217.53,405.831a1.173,1.173,0,0,0-.742.221.716.716,0,0,0-.295.59v1.441a.78.78,0,0,0,.285.595,1.113,1.113,0,0,0,.727.264l2.132.047a1.1,1.1,0,0,0,.729-.233.756.756,0,0,0,.31-.6v-1.424a.728.728,0,0,0-.324-.592,1.171,1.171,0,0,0-.743-.264l-2.075-.044h-.005ZM71.291,419.351a.977.977,0,0,0-.668.218.706.706,0,0,0-.27.551.755.755,0,0,0,.27.573,1.049,1.049,0,0,0,.668.243l2.854.079v3.119a1.922,1.922,0,0,0,.747,1.58,1.9,1.9,0,0,0-.747,1.565v3.1l-2.854-.093a.969.969,0,0,0-.668.215.685.685,0,0,0-.27.55.758.758,0,0,0,.27.574,1.053,1.053,0,0,0,.668.246l2.854.091a1.883,1.883,0,0,0,1.3-.438,1.352,1.352,0,0,0,.567-1.068V427.39a.724.724,0,0,1,.279-.569.952.952,0,0,1,.683-.234l1.88.056a.931.931,0,0,0,.659-.217.7.7,0,0,0,.28-.567.721.721,0,0,0-.28-.568.987.987,0,0,0-.659-.256l-1.88-.055a1.059,1.059,0,0,1-.683-.264.8.8,0,0,1-.279-.6v-3.052a1.473,1.473,0,0,0-.558-1.12,2,2,0,0,0-1.314-.519l-2.854-.078Zm77.574,51.8a1.007,1.007,0,0,0-.706.21.676.676,0,0,0-.281.558.777.777,0,0,0,.281.595,1.121,1.121,0,0,0,.706.267l7.085.324v3.976l-6.024-.284a2.048,2.048,0,0,0-1.4.419,1.407,1.407,0,0,0-.58,1.14v5.624l9.024.448a1.063,1.063,0,0,0,.7-.2.694.694,0,0,0,.3-.569.744.744,0,0,0-.3-.587,1.126,1.126,0,0,0-.7-.278l-7.044-.346v-4l6.024.287a2.123,2.123,0,0,0,1.426-.411,1.4,1.4,0,0,0,.593-1.151v-3.979a1.506,1.506,0,0,0-.593-1.176,2.272,2.272,0,0,0-1.426-.551l-7.084-.319Zm48.787,2.2a1.057,1.057,0,0,0-.731.214.687.687,0,0,0-.3.567.792.792,0,0,0,.3.605,1.172,1.172,0,0,0,.731.273l7.335.335v4.046l-6.237-.294a2.156,2.156,0,0,0-1.454.425,1.417,1.417,0,0,0-.6,1.16V486.4l9.343.464a1.1,1.1,0,0,0,.722-.2.7.7,0,0,0,.307-.579.753.753,0,0,0-.307-.6,1.164,1.164,0,0,0-.722-.283l-7.293-.358v-4.068l6.237.3a2.211,2.211,0,0,0,1.472-.417,1.417,1.417,0,0,0,.614-1.171v-4.049a1.525,1.525,0,0,0-.614-1.2,2.365,2.365,0,0,0-1.472-.561l-7.335-.33Zm38.887,1.752a2.186,2.186,0,0,0-1.479.445,1.377,1.377,0,0,0-.626,1.122v3.23a.762.762,0,0,1-.327.615,1.094,1.094,0,0,1-.75.234l-2.1-.1a1.122,1.122,0,0,0-.749.214.687.687,0,0,0-.3.574.775.775,0,0,0,.3.613,1.245,1.245,0,0,0,.749.278l2.1.1a1.167,1.167,0,0,1,.75.316.838.838,0,0,1,.327.635v3.219a1.576,1.576,0,0,0,.611,1.2,2.4,2.4,0,0,0,1.493.586l3.213.16a1.1,1.1,0,0,0,.739-.214.7.7,0,0,0,.314-.578.76.76,0,0,0-.314-.605,1.167,1.167,0,0,0-.739-.287l-3.213-.158v-3.283a2.08,2.08,0,0,0-.853-1.722,1.9,1.9,0,0,0,.853-1.641v-3.271l3.213.147a1.107,1.107,0,0,0,.739-.209.71.71,0,0,0,.314-.587.757.757,0,0,0-.314-.6,1.163,1.163,0,0,0-.739-.284l-3.213-.145Zm-55.267-2.471a1.1,1.1,0,0,0-.723.2.668.668,0,0,0-.287.553V484.78a.787.787,0,0,0,.287.6,1.187,1.187,0,0,0,.723.27,1.047,1.047,0,0,0,.714-.2.7.7,0,0,0,.3-.574v-5.245l2.884-1.4a1.755,1.755,0,0,1,.846-.206l1.14.054a1.162,1.162,0,0,1,.726.28.809.809,0,0,1,.312.6l.256,6.221a.842.842,0,0,0,.3.594,1.114,1.114,0,0,0,.713.282,1.1,1.1,0,0,0,.728-.2.671.671,0,0,0,.294-.576l-.257-6.207a2.409,2.409,0,0,0-.933-1.8,3.434,3.434,0,0,0-2.143-.826L185.9,476.4a4.289,4.289,0,0,0-1.98.475l-1.629.789V473.5a.753.753,0,0,0-.3-.6,1.116,1.116,0,0,0-.714-.278ZM86.48,471.4a.993.993,0,0,0-.688.205.673.673,0,0,0-.281.545v11.362a.773.773,0,0,0,.281.594,1.112,1.112,0,0,0,.688.272.928.928,0,0,0,.663-.2.692.692,0,0,0,.282-.566v-3.532l.737.653a2.938,2.938,0,0,0,1.87.739l.417.021A2.993,2.993,0,0,0,92.394,481l1.549-1.046a2.254,2.254,0,0,0,1.124-1.932v-2.5a2.435,2.435,0,0,0-1.045-1.981l-1.584-1.222a3.175,3.175,0,0,0-1.851-.714l-.443-.021a3.852,3.852,0,0,0-2.719,1.166v-.515a.746.746,0,0,0-.282-.571,1.037,1.037,0,0,0-.663-.268Zm30.873,1.8a.98.98,0,0,0-.691.219.7.7,0,0,0-.274.563v7.645a.754.754,0,0,0,.288.578,1.072,1.072,0,0,0,.677.273.993.993,0,0,0,.682-.206.676.676,0,0,0,.288-.55v-5.155l2.639-1.3a1.934,1.934,0,0,1,.95-.236l.947.044q1.03.049,1.063.9l.289,6.045a.784.784,0,0,0,.3.61,1.156,1.156,0,0,0,.672.244,1.011,1.011,0,0,0,.695-.206.646.646,0,0,0,.276-.552l-.267-6.145a2.35,2.35,0,0,0-.891-1.725,3.226,3.226,0,0,0-2-.777l-.9-.042a4.1,4.1,0,0,0-2.007.38l-1.765.811v-.539a.764.764,0,0,0-.288-.589,1.061,1.061,0,0,0-.682-.282Zm-13.62-.612a.988.988,0,0,0-.684.207.674.674,0,0,0-.272.552.751.751,0,0,0,.285.575,1.056,1.056,0,0,0,.671.27l3.644.171a1.032,1.032,0,0,1,.673.271.739.739,0,0,1,.286.58l.022,1.137a5.115,5.115,0,0,0-.893-.157l-3.754-.179a2.967,2.967,0,0,0-2.05.618,2.048,2.048,0,0,0-.845,1.669v.931a2.293,2.293,0,0,0,.845,1.762,3.234,3.234,0,0,0,2.05.806l3.24.161,1.627-.721a.758.758,0,0,0,.286.584,1.124,1.124,0,0,0,.7.266,1.013,1.013,0,0,0,.678-.2.68.68,0,0,0,.286-.556l-.242-6.031a2.368,2.368,0,0,0-.881-1.756,3.187,3.187,0,0,0-2.024-.793l-3.645-.169Zm31.981,1.485a3.021,3.021,0,0,0-1.785.455l-.815.493a2.211,2.211,0,0,0-.757.807,1.89,1.89,0,0,0-.291.843v3.712a1.937,1.937,0,0,0,.269.9,2.357,2.357,0,0,0,.685.783l.874.681a3.339,3.339,0,0,0,.829.416,3.829,3.829,0,0,0,1.086.228l5.179.257a.994.994,0,0,0,.68-.208.668.668,0,0,0,.3-.554.748.748,0,0,0-.293-.588,1.1,1.1,0,0,0-.689-.276l-5.054-.248a1.708,1.708,0,0,1-.884-.34l-.574-.425a.888.888,0,0,1-.43-.726v-.471l6.942.336a1,1,0,0,0,.689-.208.687.687,0,0,0,.293-.559v-1.965a2.154,2.154,0,0,0-.8-1.8l-.734-.615a3.3,3.3,0,0,0-1.966-.805l-2.758-.128ZM90.031,473.2l.556.026a1.018,1.018,0,0,1,.586.228l1.6,1.223a.88.88,0,0,1,.418.7v2.578a.725.725,0,0,1-.374.654l-1.482,1.024a1.2,1.2,0,0,1-.743.256l-.486-.024a1.575,1.575,0,0,1-.894-.471l-1.362-1.216a1.031,1.031,0,0,1-.42-.739v-2.04a.866.866,0,0,1,.373-.687l1.409-1.109a1.38,1.38,0,0,1,.825-.4Zm45.823,2.519,2.466.116a1.541,1.541,0,0,1,.8.339l.571.443a.846.846,0,0,1,.342.712v1.131l-5.96-.285v-1.254a.681.681,0,0,1,.386-.609l.574-.366a1.356,1.356,0,0,1,.825-.225Zm-61.777-.393a.982.982,0,0,0-.682.2.654.654,0,0,0-.279.542v1.368a.767.767,0,0,0,.27.572,1.049,1.049,0,0,0,.669.269l1.919.094a.916.916,0,0,0,.658-.2.71.71,0,0,0,.279-.564v-1.352a.727.727,0,0,0-.279-.569,1.03,1.03,0,0,0-.658-.268l-1.9-.091Zm29.635,2.332,3.78.182a1.058,1.058,0,0,1,.673.264.792.792,0,0,1,.286.588l.057.683-2.093.919-2.7-.133a1.071,1.071,0,0,1-.675-.272.76.76,0,0,1-.285-.579v-.9a.678.678,0,0,1,.276-.552.99.99,0,0,1,.684-.206h0ZM251.463,500.78a1.136,1.136,0,0,0-.759.21.7.7,0,0,0-.307.579l-.025.741a.771.771,0,0,0,.292.6,1.24,1.24,0,0,0,.774.305l1.14.062a1.075,1.075,0,0,0,.746-.211.734.734,0,0,0,.317-.6v-.724a.774.774,0,0,0-.317-.613,1.186,1.186,0,0,0-.746-.292Zm-19.178-.292a1.117,1.117,0,0,0-.749.209.692.692,0,0,0-.3.575.807.807,0,0,0,.3.616,1.252,1.252,0,0,0,.749.279l2.125.116V512.2l-2.1-.122a1.108,1.108,0,0,0-.749.206.7.7,0,0,0-.3.57.842.842,0,0,0,.3.628,1.226,1.226,0,0,0,.749.294l6.361.373a1.063,1.063,0,0,0,.739-.207.728.728,0,0,0,.314-.594.787.787,0,0,0-.314-.608,1.21,1.21,0,0,0-.739-.293l-2.132-.124V501.56a.79.79,0,0,0-.313-.61,1.216,1.216,0,0,0-.742-.29l-3.2-.173Zm-97.235-4.532a1.013,1.013,0,0,0-.7.2.677.677,0,0,0-.282.556V498.7l-1.026-.057a1.012,1.012,0,0,0-.7.2.672.672,0,0,0-.278.556.765.765,0,0,0,.278.594,1.145,1.145,0,0,0,.7.269l1,.056v5.259a2.3,2.3,0,0,0,.874,1.769,3.391,3.391,0,0,0,2.091.839l1.964.115a2.972,2.972,0,0,0,2.129-.6,1.888,1.888,0,0,0,.843-1.421.78.78,0,0,0-.279-.608,1.069,1.069,0,0,0-.7-.282.915.915,0,0,0-1,.65.946.946,0,0,1-1.044.635l-1.915-.111a1.171,1.171,0,0,1-.714-.283.773.773,0,0,1-.292-.589v-5.262l3.973.222a1.036,1.036,0,0,0,.693-.192.685.685,0,0,0,.293-.564.772.772,0,0,0-.293-.589,1.115,1.115,0,0,0-.693-.28l-3.951-.218v-1.992a.757.757,0,0,0-.3-.588,1.085,1.085,0,0,0-.677-.278v.006Zm48.3,2.619a1.075,1.075,0,0,0-.729.206.68.68,0,0,0-.288.566v2.02l-1.062-.059a1.062,1.062,0,0,0-.723.205.679.679,0,0,0-.287.565.773.773,0,0,0,.287.6,1.2,1.2,0,0,0,.723.274l1.039.058v5.35a2.324,2.324,0,0,0,.9,1.8,3.532,3.532,0,0,0,2.16.856l2.033.119a3.123,3.123,0,0,0,2.209-.609,1.913,1.913,0,0,0,.872-1.445.788.788,0,0,0-.289-.618,1.129,1.129,0,0,0-.732-.288.946.946,0,0,0-1.03.66.973.973,0,0,1-1.076.645l-1.987-.115a1.223,1.223,0,0,1-.734-.288.782.782,0,0,1-.3-.6v-5.354l4.113.229a1.076,1.076,0,0,0,.713-.195.693.693,0,0,0,.3-.574.78.78,0,0,0-.3-.6,1.152,1.152,0,0,0-.713-.285l-4.09-.226v-2.027a.774.774,0,0,0-.316-.6,1.123,1.123,0,0,0-.7-.283v.007Zm211.261,11.454a1.293,1.293,0,0,0-.836.219.72.72,0,0,0-.338.607v2.171l-1.227-.068a1.291,1.291,0,0,0-.835.217.713.713,0,0,0-.332.606.815.815,0,0,0,.332.651,1.451,1.451,0,0,0,.835.3l1.2.067v5.75a2.452,2.452,0,0,0,1.045,1.94,4.287,4.287,0,0,0,2.5.93l2.344.137h.005a3.793,3.793,0,0,0,2.547-.644,2.022,2.022,0,0,0,1.008-1.549.835.835,0,0,0-.34-.667,1.351,1.351,0,0,0-.841-.313,1.094,1.094,0,0,0-1.19.7,1.128,1.128,0,0,1-1.243.689l-2.3-.133a1.473,1.473,0,0,1-.848-.313.826.826,0,0,1-.349-.646v-5.755l4.752.265a1.312,1.312,0,0,0,.824-.206.728.728,0,0,0,.35-.615.825.825,0,0,0-.35-.646,1.392,1.392,0,0,0-.824-.31l-4.725-.261v-2.179a.819.819,0,0,0-.365-.645,1.357,1.357,0,0,0-.8-.308v.006ZM452.4,513.9a1.334,1.334,0,0,0-.852.222.734.734,0,0,0-.362.617v1.547a.844.844,0,0,0,.345.664,1.529,1.529,0,0,0,.868.309l2.464.137a1.347,1.347,0,0,0,.859-.213.738.738,0,0,0,.363-.626V515.01a.814.814,0,0,0-.363-.658,1.435,1.435,0,0,0-.859-.316Zm-148.435-7.3a1.187,1.187,0,0,0-.787.213.72.72,0,0,0-.318.589v1.484a.81.81,0,0,0,.3.631,1.293,1.293,0,0,0,.777.287l2.258.126a1.149,1.149,0,0,0,.764-.214.691.691,0,0,0,.339-.584v-1.487a.833.833,0,0,0-.329-.605,1.257,1.257,0,0,0-.8-.32l-2.207-.121Zm-54.626-1.551a1.1,1.1,0,0,0-.758.221.716.716,0,0,0-.306.586.8.8,0,0,0,.306.608,1.243,1.243,0,0,0,.758.294l2.151.12v6.309l-2.175-.126a1.127,1.127,0,0,0-.758.207.7.7,0,0,0-.306.574.813.813,0,0,0,.306.621,1.279,1.279,0,0,0,.758.288l6.486.38a1.154,1.154,0,0,0,.752-.2.7.7,0,0,0,.318-.586.767.767,0,0,0-.332-.612,1.254,1.254,0,0,0-.762-.3l-2.133-.124v-7.158a.8.8,0,0,0-.317-.621,1.164,1.164,0,0,0-.746-.3l-3.242-.179Zm19.166,1.058a3.708,3.708,0,0,0-2.23.522l-.88.55a2.03,2.03,0,0,0-.693.758,2.319,2.319,0,0,0-.28,1.119v2.809a2.1,2.1,0,0,0,.28,1,2.468,2.468,0,0,0,.693.81l.806.614a4.2,4.2,0,0,0,2.3.83l1.651.1a4.528,4.528,0,0,0,2.952-1.032v2.592a.62.62,0,0,1-.371.567l-.731.456a1.34,1.34,0,0,1-.8.206l-4.662-.276a1.182,1.182,0,0,0-.767.2.693.693,0,0,0-.31.58.791.791,0,0,0,.31.621,1.3,1.3,0,0,0,.767.291l4.662.279a4.023,4.023,0,0,0,1.131-.1,3.017,3.017,0,0,0,.954-.348l.875-.548a2.069,2.069,0,0,0,1.1-1.787v-9.555a.768.768,0,0,0-.332-.619,1.272,1.272,0,0,0-.772-.3,1.141,1.141,0,0,0-.762.211.7.7,0,0,0-.321.582l.025.336-.746-.54a4.207,4.207,0,0,0-2.31-.837l-1.548-.086Zm14.467.8a1.133,1.133,0,0,0-.776.223.716.716,0,0,0-.308.593v8.1a.8.8,0,0,0,.323.621,1.258,1.258,0,0,0,.761.3,1.139,1.139,0,0,0,.761-.21.7.7,0,0,0,.324-.584v-5.461l2.971-1.352a2.241,2.241,0,0,1,1.063-.234l1.064.059c.771.043,1.174.365,1.2.965l.325,6.409a.826.826,0,0,0,.335.655,1.364,1.364,0,0,0,.756.268,1.176,1.176,0,0,0,.781-.209.675.675,0,0,0,.316-.586l-.3-6.514a2.481,2.481,0,0,0-1-1.841,3.792,3.792,0,0,0-2.251-.85L288.3,507.2a4.844,4.844,0,0,0-2.26.372l-1.983.837v-.567a.8.8,0,0,0-.324-.628,1.23,1.23,0,0,0-.762-.308Zm90.494,5a1.236,1.236,0,0,0-.825.229.73.73,0,0,0-.328.61v8.35a.821.821,0,0,0,.344.641,1.364,1.364,0,0,0,.809.309,1.244,1.244,0,0,0,.814-.214.717.717,0,0,0,.344-.6V515.6l3.152-1.389a2.457,2.457,0,0,1,1.135-.239l1.131.063q1.23.069,1.27,1l.346,6.608a.851.851,0,0,0,.362.676,1.481,1.481,0,0,0,.8.277,1.272,1.272,0,0,0,.83-.214.693.693,0,0,0,.33-.6l-.319-6.717a2.544,2.544,0,0,0-1.065-1.9,4.113,4.113,0,0,0-2.392-.88l-1.078-.06a5.267,5.267,0,0,0-2.4.38l-2.108.859v-.585a.823.823,0,0,0-.344-.648A1.346,1.346,0,0,0,373.464,511.9Zm57.038,3.15a1.293,1.293,0,0,0-.856.232.74.74,0,0,0-.34.622v8.508a.842.842,0,0,0,.34.66,1.5,1.5,0,0,0,.856.309,1.354,1.354,0,0,0,.846-.209.732.732,0,0,0,.357-.62v-5.009l3.416-2.024a2.027,2.027,0,0,1,1.118-.333l1.56.087a1.421,1.421,0,0,1,.85.315.814.814,0,0,1,.359.655v.5a.842.842,0,0,0,.342.662,1.511,1.511,0,0,0,.862.3,1.293,1.293,0,0,0,.851-.22.739.739,0,0,0,.359-.631v-.482a2.487,2.487,0,0,0-1.067-1.968,4.364,4.364,0,0,0-2.556-.937l-1.759-.1a4.258,4.258,0,0,0-2.379.642L431.7,517.16v-1.122a.847.847,0,0,0-.357-.673,1.407,1.407,0,0,0-.846-.314ZM151.635,499.672a3.051,3.051,0,0,0-1.805.445l-.825.488a2.188,2.188,0,0,0-.765.8,1.893,1.893,0,0,0-.294.849v3.733a1.94,1.94,0,0,0,.272.907,2.419,2.419,0,0,0,.693.8l.888.694a3.381,3.381,0,0,0,.834.426,3.913,3.913,0,0,0,1.1.24l5.239.307a1,1,0,0,0,.688-.2.675.675,0,0,0,.31-.558.75.75,0,0,0-.3-.59,1.134,1.134,0,0,0-.7-.284l-5.107-.3a1.785,1.785,0,0,1-.9-.355l-.576-.429a.909.909,0,0,1-.44-.735v-.478l7.022.4a1.026,1.026,0,0,0,.7-.2.676.676,0,0,0,.3-.556V503.1a2.182,2.182,0,0,0-.807-1.815l-.747-.625a3.384,3.384,0,0,0-1.989-.832l-2.79-.154Zm13.78.761a.972.972,0,0,0-.724.223.727.727,0,0,0-.275.562.694.694,0,0,0,.224.5l3.316,3.419-3.586,3.315a.63.63,0,0,0-.192.488.8.8,0,0,0,.284.613,1.122,1.122,0,0,0,.715.286,1,1,0,0,0,.8-.295l3.283-3.006,3.253,3.388a1.211,1.211,0,0,0,.816.379,1.02,1.02,0,0,0,.7-.2.725.725,0,0,0,.309-.607.64.64,0,0,0-.2-.475l-3.556-3.715,3.39-3.158a.6.6,0,0,0,.129-.452.691.691,0,0,0-.309-.574,1.221,1.221,0,0,0-.7-.264.938.938,0,0,0-.719.246l-3.111,2.827-3.035-3.148a1.176,1.176,0,0,0-.811-.349h0Zm51.054,2.819a1.1,1.1,0,0,0-.741.207.683.683,0,0,0-.3.568.787.787,0,0,0,.309.606,1.2,1.2,0,0,0,.732.289l3.945.22a1.173,1.173,0,0,1,.734.29.762.762,0,0,1,.31.6l.025,1.188a5.8,5.8,0,0,0-.968-.173l-4.069-.23a3.291,3.291,0,0,0-2.227.619,2.069,2.069,0,0,0-.911,1.723v.974a2.365,2.365,0,0,0,.911,1.84,3.641,3.641,0,0,0,2.227.867l3.511.206,1.759-.735a.8.8,0,0,0,.315.616,1.259,1.259,0,0,0,.754.286,1.118,1.118,0,0,0,.735-.2.7.7,0,0,0,.31-.579l-.263-6.283a2.458,2.458,0,0,0-.955-1.834,3.584,3.584,0,0,0-2.2-.849l-3.945-.218ZM340.7,510.114a3.617,3.617,0,0,0-2.042.489l-1.978,1.2a2.048,2.048,0,0,0-1.176,1.861v2.269a2.206,2.206,0,0,0,1.042,1.88l2.189,1.6a4.087,4.087,0,0,0,2.182.718l4.836.283a1.218,1.218,0,0,0,.8-.2.718.718,0,0,0,.338-.6.788.788,0,0,0-.338-.631,1.348,1.348,0,0,0-.8-.306l-4.634-.269a1.816,1.816,0,0,1-1-.317l-1.99-1.422a.741.741,0,0,1-.346-.6v-2.13a.829.829,0,0,1,.439-.752l1.814-1.09a1.492,1.492,0,0,1,.88-.23l4.862.271a1.228,1.228,0,0,0,.8-.2.7.7,0,0,0,.338-.6.794.794,0,0,0-.338-.634,1.309,1.309,0,0,0-.8-.3l-5.079-.274Zm17.309.956a3.715,3.715,0,0,0-2.082.47l-.951.52a2.425,2.425,0,0,0-.888.856,1.936,1.936,0,0,0-.339.91v4.009a1.985,1.985,0,0,0,.313.975,2.7,2.7,0,0,0,.8.86l1.019.749a4.033,4.033,0,0,0,.962.461,4.822,4.822,0,0,0,1.266.263l6.043.354a1.215,1.215,0,0,0,.794-.215.711.711,0,0,0,.358-.6.792.792,0,0,0-.342-.635,1.368,1.368,0,0,0-.81-.308l-5.891-.342a2.152,2.152,0,0,1-1.036-.385l-.664-.463a.97.97,0,0,1-.507-.791v-.513l8.1.464a1.246,1.246,0,0,0,.81-.215.71.71,0,0,0,.342-.6v-2.123a2.288,2.288,0,0,0-.931-1.953l-.862-.675a4.076,4.076,0,0,0-2.294-.9l-3.212-.178Zm56.443,3.117a3.911,3.911,0,0,0-2.161.477l-.987.529a2.478,2.478,0,0,0-.916.871,1.947,1.947,0,0,0-.352.927v4.085a2,2,0,0,0,.325.994,2.76,2.76,0,0,0,.829.876l1.058.764a4.263,4.263,0,0,0,1,.471,5.089,5.089,0,0,0,1.314.269l6.272.368a1.271,1.271,0,0,0,.824-.218.715.715,0,0,0,.366-.609.8.8,0,0,0-.355-.647,1.422,1.422,0,0,0-.835-.315l-6.12-.355a2.238,2.238,0,0,1-1.07-.393l-.695-.473a.981.981,0,0,1-.521-.806v-.523l8.406.482a1.3,1.3,0,0,0,.84-.218.72.72,0,0,0,.355-.606v-2.163a2.319,2.319,0,0,0-.966-1.991l-.895-.689a4.28,4.28,0,0,0-2.381-.922l-3.34-.184Zm-145.927-6.378,1.449.081a1.592,1.592,0,0,1,.922.324l1.758,1.287a.939.939,0,0,1,.45.785v1.286a.743.743,0,0,1-.4.648L271,513.263a1.5,1.5,0,0,1-.849.255l-1.755-.1a1.315,1.315,0,0,1-.7-.262l-.7-.535a.9.9,0,0,1-.423-.674v-2.831a.735.735,0,0,1,.384-.667l.664-.4a1.539,1.539,0,0,1,.911-.241Zm-116.751-6.478,2.494.139a1.58,1.58,0,0,1,.805.348l.578.451a.857.857,0,0,1,.346.719v1.137l-6.024-.342v-1.262a.673.673,0,0,1,.386-.609l.581-.367A1.365,1.365,0,0,1,151.776,501.331Zm206.392,11.52,2.877.161a1.907,1.907,0,0,1,.929.377l.672.488a.9.9,0,0,1,.394.773v1.221l-6.948-.394v-1.355a.715.715,0,0,1,.444-.652l.669-.391A1.662,1.662,0,0,1,358.168,512.851ZM414.623,516l2.986.167a2,2,0,0,1,.964.385l.692.5a.916.916,0,0,1,.414.789v1.244l-7.218-.409v-1.38h0a.729.729,0,0,1,.461-.664l.695-.4a1.749,1.749,0,0,1,1-.23h0ZM197.75,504.3a1.08,1.08,0,0,0-.731.206.679.679,0,0,0-.3.564v.732a.834.834,0,0,0,.3.62,1.187,1.187,0,0,0,.731.288l8.293.471a1.028,1.028,0,0,0,.722-.206.725.725,0,0,0,.307-.588v-.735a.742.742,0,0,0-.316-.612,1.222,1.222,0,0,0-.712-.276l-8.293-.464Zm254.586,15.819a1.356,1.356,0,0,0-.868.22.731.731,0,0,0-.345.613.877.877,0,0,0,.345.677,1.4,1.4,0,0,0,.841.317l3.713.212v3.79a.843.843,0,0,0,.363.667,1.569,1.569,0,0,0,.888.313,1.372,1.372,0,0,0,.855-.211.736.736,0,0,0,.363-.625v-4.7a.84.84,0,0,0-.38-.668,1.4,1.4,0,0,0-.838-.325l-4.936-.279Zm-148.374-7.583a1.223,1.223,0,0,0-.787.2.7.7,0,0,0-.318.6v1.484a.819.819,0,0,0,.3.62,1.262,1.262,0,0,0,.777.3l2.258.131a1.166,1.166,0,0,0,.774-.211.733.733,0,0,0,.329-.6v-1.467a.776.776,0,0,0-.339-.626,1.31,1.31,0,0,0-.789-.3l-2.207-.125Zm-87.518-4.01,4.093.234a1.2,1.2,0,0,1,.734.283.822.822,0,0,1,.31.615l.062.708-2.268.936-2.93-.17a1.208,1.208,0,0,1-.732-.295.781.781,0,0,1-.309-.6v-.932a.688.688,0,0,1,.3-.571,1.093,1.093,0,0,1,.741-.206h0ZM71.289,515.95a.942.942,0,0,0-.668.194.678.678,0,0,0-.27.541.783.783,0,0,0,.27.583,1.086,1.086,0,0,0,.668.267l2.854.181v3.116a2,2,0,0,0,.747,1.607,1.824,1.824,0,0,0-.747,1.538v3.1l-2.854-.191a.947.947,0,0,0-.668.191.659.659,0,0,0-.27.54.787.787,0,0,0,.27.584,1.091,1.091,0,0,0,.668.27l2.855.193a1.826,1.826,0,0,0,1.3-.4,1.3,1.3,0,0,0,.567-1.048v-3.06a.7.7,0,0,1,.279-.559.924.924,0,0,1,.683-.21l1.88.123a.91.91,0,0,0,.659-.193.681.681,0,0,0,.28-.56.743.743,0,0,0-.28-.575,1.024,1.024,0,0,0-.659-.279l-1.88-.122a1.1,1.1,0,0,1-.683-.292.828.828,0,0,1-.279-.6v-3.052a1.532,1.532,0,0,0-.558-1.14,2.069,2.069,0,0,0-1.314-.566l-2.854-.179Z" transform="translate(1209.932 195.735)"/>
  </g>
</svg>
