<svg xmlns="http://www.w3.org/2000/svg" viewBox="0 0 371.062 57.64">
  <defs>
    <style>
      .cls-1 {
        fill: #3e4e50;
      }
    </style>
  </defs>
  <g id="Group_39" data-name="Group 39" transform="translate(-140 -42)">
    <g id="g1193" transform="translate(140 42)">
      <g id="g1191" transform="translate(0 0)">
        <path id="path1183" class="cls-1" d="M71.671,170.488c-14.665,0-26.553,4.668-26.553,10.428,2.237,12.791,4.574,25.895,6.852,38.79,0,0,2.361,8.082,18.7,8.412s20.7-8.412,20.7-8.412c1.95-12.916,5.043-25.962,6.854-38.79,0-5.76-11.888-10.428-26.553-10.428Zm0,2.566c7.662-.021,20.871,3.53,20.872,7.586s-14.325,7.56-20.872,7.585-20.922-2.21-20.873-7.585S64.009,173.075,71.671,173.054ZM89.6,189.813l-4.378,25.421s-2.995,6.014-14.24,5.788-12.871-5.788-12.871-5.788l-4.376-25.417c3.218,2.753,10.08,4.239,17.791,4.243s14.857-1.493,18.073-4.247Z" transform="translate(-45.118 -170.488)"/>
        <path id="path1185" class="cls-1" d="M41.081,116.145l-8.277,4.8,8.277,4.793-.8-2.111-4.632-2.683,4.632-2.684Z" transform="translate(-19.833 -111.757)"/>
        <path id="path1187" class="cls-1" d="M37.859,116.145l8.277,4.8-8.277,4.793.8-2.111,4.632-2.683-4.632-2.684Z" transform="translate(-5.998 -111.757)"/>
        <rect id="rect1189" class="cls-1" width="9.382" height="2.159" transform="translate(22.592 12.199) rotate(-45.604)"/>
      </g>
    </g>
    <path id="Path_8" data-name="Path 8" class="cls-1" d="M17.932-4.512h8.143a2.268,2.268,0,0,1,1.626.658,2.133,2.133,0,0,1,.685,1.6,2.133,2.133,0,0,1-.685,1.6A2.266,2.266,0,0,1,26.077,0H17.644a6.521,6.521,0,0,1-3.33-1.021A6.147,6.147,0,0,1,11.924-3.3L6.714-13.374a10.17,10.17,0,0,1-1.047-4.458,9.134,9.134,0,0,1,.994-4.377l5.264-9.963A6.976,6.976,0,0,1,14.26-34.63a5.523,5.523,0,0,1,3.062-1.061h8.916a2.154,2.154,0,0,1,1.6.671,2.189,2.189,0,0,1,.658,1.584,2.266,2.266,0,0,1-.658,1.625,2.131,2.131,0,0,1-1.6.685h-8.59A2,2,0,0,0,15.9-29.861l-5,9.341a5.384,5.384,0,0,0-.587,2.607,5.827,5.827,0,0,0,.64,2.8L15.73-5.931A2.268,2.268,0,0,0,17.932-4.512ZM61.5-17.778v9.534a7.512,7.512,0,0,1-2.86,5.613A8.778,8.778,0,0,1,52.744-.054H47.454a8.626,8.626,0,0,1-5.908-2.618,7.6,7.6,0,0,1-2.82-5.573v-9.534a7.672,7.672,0,0,1,2.753-5.573,8.532,8.532,0,0,1,5.975-2.618h5.291a8.539,8.539,0,0,1,5.895,2.524A7.558,7.558,0,0,1,61.5-17.778Zm-18.208.188v9.131a2.4,2.4,0,0,0,.886,1.96l1.692,1.45a2.361,2.361,0,0,0,1.584.483H52.69A3.083,3.083,0,0,0,54.785-5.4l1.37-1.208a2.146,2.146,0,0,0,.833-1.8v-9.131a2.356,2.356,0,0,0-.833-1.987L54.57-20.786a2.847,2.847,0,0,0-1.88-.671H48.018a3.488,3.488,0,0,0-2.363.725l-1.531,1.316A2.269,2.269,0,0,0,43.291-17.59Zm46.863-5.183V-33.435a2.2,2.2,0,0,1,.645-1.6,2.1,2.1,0,0,1,1.558-.658,2.266,2.266,0,0,1,1.625.658,2.133,2.133,0,0,1,.685,1.6V-2.256a2.154,2.154,0,0,1-.671,1.6A2.189,2.189,0,0,1,92.41,0,2.163,2.163,0,0,1,90.8-.658a2.2,2.2,0,0,1-.645-1.6V-3.25Q86.851,0,83.977,0h-3.84a7.114,7.114,0,0,1-4.619-1.987l-1.88-1.584A5.935,5.935,0,0,1,72.416-5.64a7.36,7.36,0,0,1-.577-2.712v-9.185a7.177,7.177,0,0,1,.645-2.968,5.979,5.979,0,0,1,1.5-2.162L75.84-24.25a6.917,6.917,0,0,1,4.673-1.719h3.25a7.217,7.217,0,0,1,4.834,1.88ZM83.6-21.4H80.459a2.625,2.625,0,0,0-1.8.725l-1.45,1.262a2.2,2.2,0,0,0-.752,1.719v9.561a2.192,2.192,0,0,0,.886,1.692l1.477,1.262a2.2,2.2,0,0,0,1.477.618h3.679A2.9,2.9,0,0,0,85.7-5.4l3.572-2.954a2.471,2.471,0,0,0,.886-1.934v-4.888a2.96,2.96,0,0,0-.94-2.417l-3.679-3.142A2.733,2.733,0,0,0,83.6-21.4Zm44.338,3.975v5.452a2.167,2.167,0,0,1-.671,1.584,2.167,2.167,0,0,1-1.584.671H109.731v1.316a2.442,2.442,0,0,0,.994,1.96l1.316,1.1a3.39,3.39,0,0,0,2.041.833h11.6a2.189,2.189,0,0,1,1.584.658,2.154,2.154,0,0,1,.671,1.6,2.146,2.146,0,0,1-.685,1.584A2.181,2.181,0,0,1,125.684,0h-11.9A6.969,6.969,0,0,1,111.3-.5a6.531,6.531,0,0,1-1.92-1.034L107.368-3.3A5.757,5.757,0,0,1,105.8-5.4a5.864,5.864,0,0,1-.631-2.471V-18.208a6.239,6.239,0,0,1,.685-2.39,6.188,6.188,0,0,1,1.732-2.336l1.88-1.477a6.365,6.365,0,0,1,4.109-1.5h6.338a6.529,6.529,0,0,1,4.512,1.987l1.692,1.611A6.231,6.231,0,0,1,127.939-17.429Zm-18.154-.349v3.491h13.7v-3.142a2.414,2.414,0,0,0-.779-1.934l-1.316-1.155a3.045,3.045,0,0,0-1.826-.833h-5.667a2.887,2.887,0,0,0-1.907.725l-1.316,1.1A2.092,2.092,0,0,0,109.785-17.778ZM184.033-4.512h8.143a2.268,2.268,0,0,1,1.626.658,2.133,2.133,0,0,1,.685,1.6,2.133,2.133,0,0,1-.685,1.6A2.266,2.266,0,0,1,192.178,0h-8.433a6.521,6.521,0,0,1-3.33-1.021,6.147,6.147,0,0,1-2.39-2.283l-5.21-10.071a10.17,10.17,0,0,1-1.047-4.458,9.134,9.134,0,0,1,.994-4.377l5.264-9.963a6.976,6.976,0,0,1,2.336-2.457,5.523,5.523,0,0,1,3.062-1.061h8.916a2.154,2.154,0,0,1,1.6.671,2.189,2.189,0,0,1,.658,1.584,2.266,2.266,0,0,1-.658,1.625,2.131,2.131,0,0,1-1.6.685h-8.59A2,2,0,0,0,182-29.861l-5,9.341a5.384,5.384,0,0,0-.587,2.607,5.827,5.827,0,0,0,.64,2.8l4.777,9.186A2.268,2.268,0,0,0,184.033-4.512ZM211.6-16.274h8.848a10,10,0,0,1,2.1.321l-.052-3.2a2.173,2.173,0,0,0-.659-1.6,2.182,2.182,0,0,0-1.6-.658h-8.585a2.174,2.174,0,0,1-1.588-.671,2.165,2.165,0,0,1-.673-1.584,2.174,2.174,0,0,1,.659-1.6,2.18,2.18,0,0,1,1.6-.658h8.58a6.533,6.533,0,0,1,4.774,1.96,6.8,6.8,0,0,1,2.058,4.807l.564,16.892a2.154,2.154,0,0,1-.671,1.6A2.189,2.189,0,0,1,225.371,0a2.252,2.252,0,0,1-1.638-.658,2.154,2.154,0,0,1-.671-1.6L219.243,0H211.6a6.594,6.594,0,0,1-4.841-1.987,6.575,6.575,0,0,1-1.99-4.834V-9.453a6.566,6.566,0,0,1,2-4.821A6.585,6.585,0,0,1,211.6-16.274Zm11.283,8.782L222.752-9.4a2.28,2.28,0,0,0-.672-1.611,2.157,2.157,0,0,0-1.586-.645h-8.9A2.179,2.179,0,0,0,210-11a2.174,2.174,0,0,0-.659,1.6v2.524a2.166,2.166,0,0,0,.672,1.584,2.17,2.17,0,0,0,1.586.671h6.371Zm25.5-13.911V-2.256a2.154,2.154,0,0,1-.671,1.6A2.189,2.189,0,0,1,246.13,0a2.252,2.252,0,0,1-1.638-.658,2.154,2.154,0,0,1-.671-1.6V-21.4h-2.31a2.154,2.154,0,0,1-1.6-.671,2.189,2.189,0,0,1-.658-1.584,2.306,2.306,0,0,1,.6-1.571,2.089,2.089,0,0,1,1.652-.685h2.363v-1.746a7.633,7.633,0,0,1,2.377-5.747,8.212,8.212,0,0,1,5.922-2.283h5.291a2.154,2.154,0,0,1,1.6.671,2.252,2.252,0,0,1,.658,1.638,2.167,2.167,0,0,1-.671,1.584,2.167,2.167,0,0,1-1.584.671h-5.291a3.816,3.816,0,0,0-2.672.967,3.225,3.225,0,0,0-1.061,2.5v1.746h4.512a2.075,2.075,0,0,1,1.584.645,2.2,2.2,0,0,1,.671,1.611,2.167,2.167,0,0,1-.671,1.584,2.167,2.167,0,0,1-1.584.671Zm45.654,3.975v5.452a2.167,2.167,0,0,1-.671,1.584,2.167,2.167,0,0,1-1.584.671H275.833v1.316a2.442,2.442,0,0,0,.994,1.96l1.316,1.1a3.39,3.39,0,0,0,2.041.833h11.6a2.189,2.189,0,0,1,1.584.658,2.154,2.154,0,0,1,.671,1.6,2.146,2.146,0,0,1-.685,1.584A2.181,2.181,0,0,1,291.785,0h-11.9A6.969,6.969,0,0,1,277.4-.5a6.531,6.531,0,0,1-1.92-1.034L273.469-3.3A5.757,5.757,0,0,1,271.9-5.4a5.864,5.864,0,0,1-.631-2.471V-18.208a6.239,6.239,0,0,1,.685-2.39,6.188,6.188,0,0,1,1.732-2.336l1.88-1.477a6.365,6.365,0,0,1,4.109-1.5h6.338a6.529,6.529,0,0,1,4.512,1.987l1.692,1.611A6.231,6.231,0,0,1,294.041-17.429Zm-18.154-.349v3.491h13.7v-3.142a2.414,2.414,0,0,0-.779-1.934l-1.316-1.155a3.045,3.045,0,0,0-1.826-.833H280a2.887,2.887,0,0,0-1.907.725l-1.316,1.1A2.092,2.092,0,0,0,275.886-17.778Z" transform="translate(217.022 89)"/>
  </g>
</svg>
